<?xml version="1.0" encoding="UTF-8"?>
<svg version="1.1" xmlns="http://www.w3.org/2000/svg" width="252" height="252">
<path d="M0 0 C83.16 0 166.32 0 252 0 C252 83.16 252 166.32 252 252 C168.84 252 85.68 252 0 252 C0 168.84 0 85.68 0 0 Z " fill="#FEFEFE" transform="translate(0,0)"/>
<path d="M0 0 C20.11742237 -0.79182966 40.11146506 8.20541547 54.92578125 21.375 C70.18935575 35.52943122 77.50351846 53.77699926 78.80078125 74.25 C78.97250444 80.07917846 79.01440666 85.90685658 79.0390625 91.73828125 C79.04313803 92.55917929 79.04721355 93.38007732 79.05141258 94.22585106 C79.07211369 98.55754709 79.08649256 102.88921279 79.09594727 107.22094727 C79.10707911 111.68073183 79.14160126 116.14002677 79.18111897 120.59963703 C79.20726372 124.04750996 79.21563634 127.49526443 79.21922874 130.94322777 C79.22408711 132.58783527 79.23567971 134.23243776 79.25426674 135.8769474 C79.27865142 138.17398183 79.27769712 140.46972112 79.27075195 142.7668457 C79.27661819 144.07047562 79.28248444 145.37410553 79.28852844 146.71723938 C78.45506648 152.75401756 74.77934691 156.54259301 70.55078125 160.6875 C69.844375 161.38746094 69.13796875 162.08742187 68.41015625 162.80859375 C66.37261438 164.71497649 64.30947989 166.53455499 62.19140625 168.34765625 C56.79407897 173.04161514 51.81924696 178.15989066 46.80078125 183.25 C41.28355185 188.84599338 35.76945265 194.36835091 29.79345703 199.47998047 C25.75765021 203.06483705 22.02339532 206.9669691 18.23828125 210.8125 C12.932954 216.20210568 7.62796664 221.42399546 1.80078125 226.25 C-1.64323662 224.62915347 -3.80593393 222.82463755 -6.44921875 220.0625 C-9.15939803 217.23857231 -11.93429417 214.58965601 -14.90234375 212.04296875 C-20.61456628 207.09384467 -25.83458729 201.66061271 -31.1328125 196.27734375 C-34.66068371 192.71516585 -38.17562049 189.20665736 -41.9921875 185.953125 C-47.98499073 180.80831763 -53.45192456 175.10229659 -59.01171875 169.5 C-60.154061 168.35262969 -61.29663752 167.20549259 -62.43945312 166.05859375 C-64.52464047 163.96530011 -66.60852358 161.8707286 -68.69067383 159.77441406 C-70.10832114 158.34779867 -71.53282009 156.9277002 -72.97924805 155.53027344 C-76.03945447 152.31880206 -75.3619434 148.43087789 -75.3762207 144.2746582 C-75.3827919 143.4498999 -75.3893631 142.6251416 -75.39613342 141.77539062 C-75.41590714 139.03385323 -75.42754607 136.29237108 -75.4375 133.55078125 C-75.44157553 132.61150473 -75.44565105 131.6722282 -75.44985008 130.70448875 C-75.47074102 125.72055658 -75.4850223 120.73665208 -75.49438477 115.75268555 C-75.50537744 110.63776419 -75.53968483 105.52328656 -75.57955647 100.4085207 C-75.60590594 96.45071185 -75.61409336 92.49300501 -75.61766624 88.5351162 C-75.62249529 86.65233597 -75.63400213 84.76955915 -75.65270424 82.88686562 C-75.85433226 61.219765 -71.13758391 42.76082465 -56.19921875 26.25 C-55.5340625 25.49203125 -54.86890625 24.7340625 -54.18359375 23.953125 C-39.68420272 8.379705 -20.78932397 1.62456256 0 0 Z " fill="#010101" transform="translate(124.19921875,12.75)"/>
<path d="M0 0 C9.05901339 6.78737629 15.73568314 16.08021485 18.1328125 27.23828125 C19.48202491 41.68098683 16.44732195 52.76692926 7.609375 64.2109375 C0.68659759 71.89353194 -10.34522318 76.841511 -20.59936523 77.46533203 C-21.90333252 77.4548584 -23.2072998 77.44438477 -24.55078125 77.43359375 C-25.60133446 77.42934891 -25.60133446 77.42934891 -26.67311096 77.42501831 C-28.8838192 77.4139301 -31.09410421 77.38884828 -33.3046875 77.36328125 C-34.81444722 77.35323671 -36.32421338 77.34411345 -37.83398438 77.3359375 C-41.51185347 77.31402839 -45.1894791 77.27957883 -48.8671875 77.23828125 C-48.87265594 76.11194778 -48.87265594 76.11194778 -48.87823486 74.96286011 C-48.91617031 67.87127665 -48.97308544 60.78015524 -49.05109024 53.68891716 C-49.09052639 50.04357023 -49.12273338 46.39846344 -49.13818359 42.75292969 C-49.15337629 39.23185049 -49.18786632 35.71143166 -49.23549652 32.19064713 C-49.25745882 30.20002543 -49.25965899 28.20921731 -49.26153564 26.21847534 C-49.35790559 17.42205032 -49.35790559 17.42205032 -53.8671875 10.23828125 C-56.31945976 6.94039787 -56.89605034 5.79629615 -56.6796875 1.61328125 C-55.8671875 -1.76171875 -55.8671875 -1.76171875 -53.8671875 -4.76171875 C-53.2071875 -4.76171875 -52.5471875 -4.76171875 -51.8671875 -4.76171875 C-50.359375 -2.79296875 -50.359375 -2.79296875 -48.7421875 -0.26171875 C-48.20335938 0.57359375 -47.66453125 1.40890625 -47.109375 2.26953125 C-46.49449219 3.2440625 -46.49449219 3.2440625 -45.8671875 4.23828125 C-41.19176872 1.75744679 -37.39629679 -0.85957515 -33.54296875 -4.4921875 C-24.30485708 -11.49075694 -8.4802251 -5.21060153 0 0 Z " fill="#F6F6F6" transform="translate(144.8671875,79.76171875)"/>
<path d="M0 0 C8.66798699 3.89174926 14.07357335 9.80349049 17.875 18.4375 C21.05385402 27.06581805 20.31758405 33.97666117 17.26171875 42.46875 C13.46691636 50.592834 7.06019371 55.99110265 -1.125 59.4375 C-4.18633006 60.36107796 -6.91737203 60.55461968 -10.109375 60.53515625 C-11.04394531 60.53193359 -11.97851562 60.52871094 -12.94140625 60.52539062 C-13.90949219 60.51701172 -14.87757812 60.50863281 -15.875 60.5 C-17.35033203 60.49323242 -17.35033203 60.49323242 -18.85546875 60.48632812 C-21.27870791 60.47456483 -23.70182273 60.45812684 -26.125 60.4375 C-26.30305392 53.1787601 -26.4253105 45.92058679 -26.50952148 38.66015625 C-26.54463971 36.19249426 -26.59234647 33.72497705 -26.65307617 31.2578125 C-26.73836874 27.70276111 -26.77777691 24.14964082 -26.80859375 20.59375 C-26.84472275 19.49760376 -26.88085175 18.40145752 -26.91807556 17.27209473 C-26.9215293 10.47539813 -25.81693956 6.84984385 -21.02284241 1.95544434 C-14.68366679 -3.11479526 -7.3940701 -2.65867027 0 0 Z " fill="#010101" transform="translate(133.125,85.5625)"/>
</svg>
