<svg xmlns="http://www.w3.org/2000/svg" viewBox="0 0 200 100" preserveAspectRatio="xMidYMid meet" overflow="hidden" aria-hidden="true">
<path d="M0 0 C4.83488546 5.27442051 5.39237558 9.73961148 5.36328125 16.6640625 C5.05494553 19.3149488 4.30658208 20.92432819 3.0625 23.25 C3.40070153 25.26954441 3.40070153 25.26954441 4.0625 27.25 C4.0625 28.57 4.0625 29.89 4.0625 31.25 C2.0625 33 2.0625 33 0.0625 34.25 C-0.5975 33.569375 -1.2575 32.88875 -1.9375 32.1875 C-5.45162706 29.9179596 -6.78016534 30.34136743 -10.75390625 31.0625 C-14.83533563 31.41296263 -18.35854527 30.14192836 -21.9375 28.25 C-26.49027689 24.39340016 -28.65146702 19.77662466 -29.3125 13.9375 C-28.72641649 8.17434549 -26.6597029 4.01874892 -22.625 -0.125 C-15.04660786 -4.70728362 -7.5555176 -4.50115942 0 0 Z M-16.61328125 6.48828125 C-18.2190631 8.62458689 -18.48673264 10.0414399 -18.75 12.6875 C-18.83894531 13.44933594 -18.92789063 14.21117187 -19.01953125 14.99609375 C-18.92364007 17.63081821 -18.42510805 19.07876624 -16.9375 21.25 C-13.87841587 22.06584568 -13.87841587 22.06584568 -10.9375 22.25 C-11.14375 21.63125 -11.35 21.0125 -11.5625 20.375 C-11.68625 19.67375 -11.81 18.9725 -11.9375 18.25 C-11.2775 17.59 -10.6175 16.93 -9.9375 16.25 C-8.9475 16.25 -7.9575 16.25 -6.9375 16.25 C-6.2775 16.91 -5.6175 17.57 -4.9375 18.25 C-3.72076342 14.59979025 -3.95177405 13.21107078 -5.3125 9.5 C-6.61468416 6.46740659 -6.61468416 6.46740659 -7.9375 5.25 C-12.54440404 4.7367096 -12.54440404 4.7367096 -16.61328125 6.48828125 Z " fill="#126DFF" transform="translate(194.9375,35.75)"/>
<path d="M0 0 C3.3 0 6.6 0 10 0 C10 3.96 10 7.92 10 12 C13.3 12 16.6 12 20 12 C20 8.04 20 4.08 20 0 C23.3 0 26.6 0 30 0 C30 10.89 30 21.78 30 33 C26.7 33 23.4 33 20 33 C20 28.71 20 24.42 20 20 C16.7 20 13.4 20 10 20 C10 24.29 10 28.58 10 33 C6.7 33 3.4 33 0 33 C0 22.11 0 11.22 0 0 Z " fill="#126DFF" transform="translate(135,33)"/>
<path d="M0 0 C1.79732547 2.35898968 2.79058578 3.6932009 3 6.625 C2 7.625 2 7.625 0.15234375 7.72265625 C-1.8984375 7.69010417 -3.94921875 7.65755208 -6 7.625 C-6.33 6.635 -6.66 5.645 -7 4.625 C-9.64 4.625 -12.28 4.625 -15 4.625 C-15 5.615 -15 6.605 -15 7.625 C-14.27554688 7.72296875 -13.55109375 7.8209375 -12.8046875 7.921875 C-6.87658628 8.83875466 -2.62506102 9.73021177 2 13.625 C3.57455739 16.77411479 3.34799118 19.14508816 3 22.625 C0.62210356 26.4440458 -1.12880035 28.23966169 -5.25 30.0625 C-10.37776547 30.83166482 -15.15661219 31.10902287 -19.87109375 28.6484375 C-22.80862959 26.46465786 -23.94087238 24.84884026 -24.875 21.3125 C-24.91625 20.425625 -24.9575 19.53875 -25 18.625 C-23.56344146 18.54368537 -22.1255517 18.48566441 -20.6875 18.4375 C-19.48673828 18.38529297 -19.48673828 18.38529297 -18.26171875 18.33203125 C-15.47849889 18.69255196 -14.88020786 19.64528254 -13 21.625 C-9.88006394 21.54957659 -9.88006394 21.54957659 -7 20.625 C-6.67 19.965 -6.34 19.305 -6 18.625 C-6.95261719 18.47804688 -7.90523437 18.33109375 -8.88671875 18.1796875 C-20.42082125 16.1170628 -20.42082125 16.1170628 -23.4375 12.875 C-25.39942588 8.79419416 -25.33071447 6.93025268 -24 2.625 C-21.86827701 -1.21210139 -20.42984896 -2.20743176 -16.3125 -3.8125 C-10.13314367 -5.01147959 -4.92051599 -3.89540849 0 0 Z " fill="#000000" transform="translate(55,36.375)"/>
<path d="M0 0 C3.82332689 3.51164263 3.96663087 8.1247315 4.625 13.0625 C-0.985 13.0625 -6.595 13.0625 -12.375 13.0625 C-11.385 14.0525 -10.395 15.0425 -9.375 16.0625 C-7.42263234 15.79375295 -7.42263234 15.79375295 -5.375 15.0625 C-3.79288427 14.99701508 -2.20829919 14.97671619 -0.625 15 C0.17421875 15.00902344 0.9734375 15.01804687 1.796875 15.02734375 C2.40015625 15.03894531 3.0034375 15.05054687 3.625 15.0625 C2.70504839 18.15688268 1.98716714 19.77276629 -0.5625 21.8125 C-5.39778051 23.96151356 -9.47619597 24.59406367 -14.5625 23.0625 C-18.26315681 21.4816369 -20.04574233 19.57467256 -21.75 15.953125 C-23.2674297 11.36290016 -22.88926331 7.59189106 -20.8125 3.3125 C-15.78754707 -4.51584773 -7.21998315 -4.14480514 0 0 Z M-9.375 4.0625 C-11.14690909 5.41694301 -11.14690909 5.41694301 -12.375 7.0625 C-10.065 7.0625 -7.755 7.0625 -5.375 7.0625 C-5.375 6.4025 -5.375 5.7425 -5.375 5.0625 C-7.21200789 4.29007731 -7.21200789 4.29007731 -9.375 4.0625 Z " fill="#000000" transform="translate(81.375,42.9375)"/>
<path d="M0 0 C1.20029908 2.40059817 1.11459743 3.89360649 1.09765625 6.5703125 C1.09443359 7.46621094 1.09121094 8.36210938 1.08789062 9.28515625 C1.07951172 10.22230469 1.07113281 11.15945312 1.0625 12.125 C1.05798828 13.06988281 1.05347656 14.01476562 1.04882812 14.98828125 C1.03702357 17.32558387 1.02055759 19.66276061 1 22 C-2.66666667 22 -6.33333333 22 -10 22 C-11.3921875 22.3403125 -11.3921875 22.3403125 -12.8125 22.6875 C-16.67784241 23.06645514 -17.97763577 22.35072773 -21 20 C-23 17 -23 17 -22.875 13.5 C-22 10 -22 10 -20.125 8.125 C-15.9811976 5.93122226 -12.62320648 5.91276969 -8 6 C-8 5.34 -8 4.68 -8 4 C-8.639375 4.165 -9.27875 4.33 -9.9375 4.5 C-13.97586652 5.15932515 -17.91807258 5.08003779 -22 5 C-21.21170445 1.20184871 -20.02653072 -0.49230312 -17 -3 C-11.49186746 -5.55734725 -4.5847853 -3.4733222 0 0 Z M-13 12 C-13 13.32 -13 14.64 -13 16 C-11.35 15.67 -9.7 15.34 -8 15 C-8 14.01 -8 13.02 -8 12 C-9.65 12 -11.3 12 -13 12 Z " fill="#000000" transform="translate(109,44)"/>
<path d="M0 0 C0.99 0 1.98 0 3 0 C5.86825716 5.64688129 7.12334193 9.5862195 7 16 C8.74728778 19.72803465 8.74728778 19.72803465 12 22 C12 22.66 12 23.32 12 24 C10.02 24 8.04 24 6 24 C6 25.65 6 27.3 6 29 C3.69 28.67 1.38 28.34 -1 28 C-1 29.32 -1 30.64 -1 32 C-2.485 32.495 -2.485 32.495 -4 33 C-15 11.27808989 -15 11.27808989 -15 7 C-13.02 7 -11.04 7 -9 7 C-8.67 6.01 -8.34 5.02 -8 4 C-6.02 4 -4.04 4 -2 4 C-1.34 2.68 -0.68 1.36 0 0 Z " fill="#126DFF" transform="translate(23,30)"/>
<path d="M0 0 C2.97 0 5.94 0 9 0 C9 1.98 9 3.96 9 6 C10.65 6 12.3 6 14 6 C14 8.31 14 10.62 14 13 C12.35 13 10.7 13 9 13 C9.33 16.3 9.66 19.6 10 23 C11.32 23.33 12.64 23.66 14 24 C14 26.31 14 28.62 14 31 C6.76813075 31.49029622 6.76813075 31.49029622 3.0625 29.125 C-0.28503071 25.67602897 -0.1126155 23.58585719 -0.0625 18.875 C-0.05347656 17.77929688 -0.04445313 16.68359375 -0.03515625 15.5546875 C-0.02355469 14.71164063 -0.01195313 13.86859375 0 13 C-1.32 13 -2.64 13 -4 13 C-4 10.69 -4 8.38 -4 6 C-2.68 6 -1.36 6 0 6 C0 4.02 0 2.04 0 0 Z " fill="#000000" transform="translate(115,35)"/>
<path d="M0 0 C2.64 0 5.28 0 8 0 C8 0.66 8 1.32 8 2 C11.63 2 15.26 2 19 2 C19 1.34 19 0.68 19 0 C23.29 0.66 27.58 1.32 32 2 C32 1.34 32 0.68 32 0 C32.99 0 33.98 0 35 0 C35 0.66 35 1.32 35 2 C37.97 2 40.94 2 44 2 C44 1.34 44 0.68 44 0 C44.99 0 45.98 0 47 0 C47 2.64 47 5.28 47 8 C31.33333333 8 15.66666667 8 0 8 C0 5.36 0 2.72 0 0 Z " fill="#000000" transform="translate(56,78)"/>
<path d="M0 0 C0.69375732 0.30534668 1.38751465 0.61069336 2.10229492 0.92529297 C5.87615717 2.32495104 9.39757585 2.24905936 13.36328125 2.1953125 C14.15526413 2.1924826 14.94724701 2.18965271 15.76322937 2.18673706 C18.27980999 2.17558863 20.79602789 2.15049422 23.3125 2.125 C25.02408338 2.11496329 26.73567237 2.10583864 28.44726562 2.09765625 C32.63164906 2.07566681 36.81576314 2.04117408 41 2 C40.47731534 4.76276177 39.89130413 7.3260876 39 10 C38.34 10 37.68 10 37 10 C36.505 9.01 36.505 9.01 36 8 C35.31292969 8 34.62585938 8 33.91796875 8 C29.61197917 8 25.30598958 8 21 8 C21 8.66 21 9.32 21 10 C20.34 10 19.68 10 19 10 C19 9.34 19 8.68 19 8 C18.34 8 17.68 8 17 8 C17 6.68 17 5.36 17 4 C16.34 4 15.68 4 15 4 C15 5.32 15 6.64 15 8 C12.66666667 8 10.33333333 8 8 8 C7.3090625 8.02320312 6.618125 8.04640625 5.90625 8.0703125 C5.1121875 8.08835937 4.318125 8.10640625 3.5 8.125 C2.7059375 8.14820312 1.911875 8.17140625 1.09375 8.1953125 C-1 8 -1 8 -3 6 C-2.75 3.4375 -2.75 3.4375 -2 1 C-1.34 0.67 -0.68 0.34 0 0 Z M0 2 C0 3.32 0 4.64 0 6 C1.32 5.67 2.64 5.34 4 5 C4 4.34 4 3.68 4 3 C2.68 2.67 1.36 2.34 0 2 Z M6 4 C6 4.66 6 5.32 6 6 C6.66 6 7.32 6 8 6 C8 5.34 8 4.68 8 4 C7.34 4 6.68 4 6 4 Z M21 4 C21 4.66 21 5.32 21 6 C21.66 6 22.32 6 23 6 C23 5.34 23 4.68 23 4 C22.34 4 21.68 4 21 4 Z M26 4 C26.66 4.66 27.32 5.32 28 6 C28 5.34 28 4.68 28 4 C27.34 4 26.68 4 26 4 Z " fill="#000000" transform="translate(142,78)"/>
<path d="M0 0 C2.97 0 5.94 0 9 0 C9 0.66 9 1.32 9 2 C10.32 2 11.64 2 13 2 C13.33 1.34 13.66 0.68 14 0 C14.66 0 15.32 0 16 0 C16 0.66 16 1.32 16 2 C18.97 2 21.94 2 25 2 C25 1.34 25 0.68 25 0 C25.66 0 26.32 0 27 0 C27 0.66 27 1.32 27 2 C28.98 2 30.96 2 33 2 C33 3.65 33 5.3 33 7 C29.51453502 7.87136625 27.42947121 7.8573678 24 7 C22.97326172 7.23009766 22.97326172 7.23009766 21.92578125 7.46484375 C17.99274715 8.18423717 14.17556257 8.10595751 10.1875 8.0625 C9.39923828 8.05798828 8.61097656 8.05347656 7.79882812 8.04882812 C5.86585239 8.03711312 3.93291607 8.01917998 2 8 C2 6.35 2 4.7 2 3 C1.34 3 0.68 3 0 3 C0 2.01 0 1.02 0 0 Z M18 4 C19 6 19 6 19 6 Z " fill="#000000" transform="translate(104,78)"/>
<path d="M0 0 C4.93502718 1.07033341 9.39858173 1.22504575 14.4375 1.0625 C14.4375 0.4025 14.4375 -0.2575 14.4375 -0.9375 C15.4275 -0.9375 16.4175 -0.9375 17.4375 -0.9375 C17.4375 -0.2775 17.4375 0.3825 17.4375 1.0625 C19.0875 1.0625 20.7375 1.0625 22.4375 1.0625 C23.5625 4.8125 23.5625 4.8125 22.4375 7.0625 C15.4375 7.0625 8.4375 7.0625 1.4375 7.0625 C1.4375 7.7225 1.4375 8.3825 1.4375 9.0625 C0.4475 9.0625 -0.5425 9.0625 -1.5625 9.0625 C-1.5625 8.4025 -1.5625 7.7425 -1.5625 7.0625 C-3.2125 6.7325 -4.8625 6.4025 -6.5625 6.0625 C-6.5625 4.0825 -6.5625 2.1025 -6.5625 0.0625 C-3.92996275 -1.25376862 -2.83387765 -0.67853409 0 0 Z " fill="#000000" transform="translate(31.5625,78.9375)"/>
<path d="M0 0 C1.33934716 2.95564708 2.67044247 5.9149378 4 8.875 C4.3815625 9.71675781 4.763125 10.55851562 5.15625 11.42578125 C5.5171875 12.23144531 5.878125 13.03710938 6.25 13.8671875 C6.58515625 14.61081543 6.9203125 15.35444336 7.265625 16.12060547 C8 18 8 18 8 20 C3.95389518 18.56761983 0.73515887 16.6211273 -2.75 14.125 C-3.71421875 13.44695313 -4.6784375 12.76890625 -5.671875 12.0703125 C-8.03765371 9.96651599 -8.69540278 9.08750815 -9 6 C-8.01 5.34 -7.02 4.68 -6 4 C-6 3.01 -6 2.02 -6 1 C-3.92446352 0.4465236 -2.15634036 0 0 0 Z " fill="#126DFF" transform="translate(9,42)"/>
<path d="M0 0 C3 2 3 2 3.6875 5.125 C3.790625 6.07375 3.89375 7.0225 4 8 C2 8 0 8 -2 8 C-1.125 2.25 -1.125 2.25 0 0 Z " fill="#000000" transform="translate(19,78)"/>
</svg>
