<svg width="127" height="20" viewBox="0 0 127 20" fill="none" xmlns="http://www.w3.org/2000/svg">
<path d="M5.30334 5.12947L10.1145 0H4.81116L0 5.12947L9.5356 16.3575L12.1613 13.2053L5.30334 5.12947Z" fill="black"/>
<path d="M15.7206 0H6.28906V1.5718H15.7206V0Z" fill="black"/>
<path d="M9.53451 16.3553L10.9395 18.0117L21.6784 5.12514L16.9561 0H14.2676L18.94 5.06877L9.53451 16.3553Z" fill="black"/>
<path d="M116.092 4.1853C114.207 4.1853 112.903 5.59562 112.729 9.08466H112.622V4.49945H108.264V4.62645C109.26 4.95396 109.541 5.78277 109.541 6.97252V13.1819C109.541 14.4118 109.38 15.2072 108.371 15.528V15.6617H114.514V15.528C113.244 15.2473 112.756 14.4786 112.749 12.9948V10.8693C112.749 8.17564 113.866 7.57408 114.975 7.57408C115.45 7.57408 115.905 7.72781 116.205 7.87486L116.326 7.82807V4.1853H116.085H116.092Z" fill="black"/>
<path d="M106.682 13.1826V8.40354C106.682 5.62968 105.359 4.19263 102.424 4.19263C101.228 4.19263 99.2893 4.54019 98.1997 4.88776V9.19893H98.3334C99.3161 6.56544 100.767 4.73403 102.104 4.73403C103.1 4.73403 103.474 5.496 103.474 6.57213V9.55318H102.638C99.0487 9.55318 97.6182 11.3445 97.6182 13.2762C97.6182 14.7065 98.661 15.9899 100.526 15.9899C102.15 15.9899 103.233 14.9806 103.534 13.8911C103.608 14.7533 104.035 15.4485 104.343 15.6623H107.952V15.5287C106.916 15.2078 106.689 14.4191 106.689 13.1826H106.682ZM103.474 13.47C103.26 14.0047 102.799 14.3322 102.197 14.3322C101.154 14.3322 100.613 13.4633 100.613 12.3605C100.613 10.7964 101.575 10.0478 102.972 10.0478H103.481V13.47H103.474Z" fill="black"/>
<path d="M74.0202 11.7315C73.4787 14.8529 71.5068 15.9825 69.6151 15.9825C67.1017 15.9825 64.8022 14.0308 64.8022 10.3011C64.8022 6.57149 66.7741 4.1853 69.7488 4.1853C72.0683 4.1853 74.0001 5.62236 74.0001 8.91756C74.0001 8.97104 74.0001 9.03119 74.0001 9.08466H67.3223C67.5362 11.8585 68.9733 13.4025 71.0723 13.4025C72.2421 13.4025 73.3116 12.8812 73.8731 11.6914L74.0269 11.7315H74.0202ZM67.2955 8.30264V8.54326H71.0456C71.0456 8.46974 71.0456 8.39621 71.0456 8.32937C71.0456 5.68252 70.3236 4.79355 69.2675 4.79355C68.0509 4.79355 67.2955 6.13703 67.2955 8.30932" fill="black"/>
<path d="M50.2037 13.1829V4.50708H45.9323V4.63408C46.8615 4.96828 46.9952 5.7904 46.9952 6.9601V13.3834C46.7345 13.9048 46.2331 14.2724 45.5847 14.2924C44.6088 14.2924 44.0205 13.6441 44.0205 12.3808V4.50708H39.5285V4.63408C40.5245 4.96159 40.8053 5.79041 40.8053 6.98015V12.4677C40.8053 14.9408 42.0419 15.9835 43.927 15.9835C45.4443 15.9835 46.554 15.0076 46.9818 13.7711V15.656H51.4738V15.5223C50.4778 15.1948 50.1971 14.366 50.1971 13.1762" fill="black"/>
<path d="M59.3804 4.1853C58.0167 4.1853 56.8202 4.90049 56.2787 6.11697V4.50613H51.7867V4.63313C52.7827 4.96733 53.0635 5.78946 53.0635 6.98589V17.5265C53.0635 18.7163 52.7827 19.5451 51.7867 19.8726V19.9996H58.0368V19.8726C56.7734 19.5184 56.272 18.8232 56.272 17.3327V15.2673C56.7266 15.7753 57.4418 15.9892 58.137 15.9892C61.1518 15.9892 63.3844 13.3624 63.3844 9.52581C63.3844 6.29744 61.6932 4.19199 59.3737 4.19199M57.6156 15.4278C56.9204 15.4278 56.4859 15.0601 56.272 14.7527V6.55812C56.5127 6.12366 57.0341 5.68251 57.6156 5.68251C59.0929 5.68251 59.9151 7.5674 59.9151 10.5618C59.9151 13.5562 58.9392 15.4211 57.6156 15.4211" fill="black"/>
<path d="M95.9132 13.898C95.3584 13.0291 92.2166 8.12304 92.2166 8.12304C94.2487 7.70195 95.5923 6.03764 95.5923 4.33322C95.5923 2.05398 94.2019 0.476562 90.0375 0.476562H83.4064V0.603558C84.5562 0.897654 84.9037 1.82673 84.9037 3.15016V12.9823C84.9037 14.3057 84.5628 15.2348 83.4064 15.5289V15.6626H90.218V15.5289C88.9546 15.2549 88.4599 14.4862 88.4532 13.0224V8.5575H88.8476L93.1658 15.6626H97.6177V15.5289C96.976 15.2682 96.4613 14.7669 95.9065 13.898M89.0548 8.08294H88.4532V0.997913H89.2086C91.2674 0.997913 91.8958 2.44165 91.8958 4.39338C91.8958 6.79293 91.0268 8.07625 89.0548 8.07625" fill="black"/>
<path d="M126.201 11.7315C125.659 14.8529 123.687 15.9825 121.796 15.9825C119.282 15.9825 116.983 14.0308 116.983 10.3011C116.983 6.57149 118.955 4.1853 121.929 4.1853C124.249 4.1853 126.181 5.62236 126.181 8.91756C126.181 8.97104 126.181 9.03119 126.181 9.08466H119.503C119.717 11.8585 121.154 13.4025 123.253 13.4025C124.423 13.4025 125.492 12.8812 126.054 11.6914L126.207 11.7315H126.201ZM119.476 8.30264V8.54326H123.226C123.226 8.46974 123.226 8.39621 123.226 8.32937C123.226 5.68252 122.504 4.79355 121.448 4.79355C120.231 4.79355 119.476 6.13703 119.476 8.30932" fill="black"/>
<path d="M33.8666 0.115234C29.9828 0.115234 28.3384 2.341 28.3384 4.73387C28.3384 6.69896 29.4615 8.24964 31.6206 9.2255L34.7088 10.6291C36.1794 11.2775 36.6741 12.1932 36.6741 13.2292C36.6741 14.7665 35.6848 15.6087 34.0938 15.6087C31.9882 15.6087 30.3037 13.5033 28.9534 10.1212H28.8264V15.4817C29.9962 15.7959 32.0818 16.0833 33.6794 16.0833C36.8813 16.0833 38.9201 13.9912 38.9201 10.9633C38.9201 9.04504 38.0778 7.74834 35.8118 6.71233L32.5497 5.18169C31.0591 4.49324 30.5443 3.77137 30.5443 2.75541C30.5443 1.43198 31.4936 0.563061 32.9441 0.563061C34.5016 0.563061 36.0925 1.93328 37.8104 5.16164H37.9374V0.563061C36.9949 0.362542 35.277 0.115234 33.8666 0.115234Z" fill="black"/>
<path d="M82.7893 4.1853C80.9043 4.1853 79.6008 5.59562 79.427 9.08466H79.32V4.49945H74.9617V4.62645C75.9577 4.95396 76.2385 5.78277 76.2385 6.97252V13.1819C76.2385 14.4118 76.078 15.2072 75.0687 15.528V15.6617H81.2117V15.528C79.9417 15.2473 79.4537 14.4786 79.447 12.9948V10.8693C79.447 8.17564 80.5633 7.57408 81.673 7.57408C82.1476 7.57408 82.6021 7.72781 82.9029 7.87486L83.0233 7.82807V4.1853H82.7826H82.7893Z" fill="black"/>
</svg>
