<?xml version="1.0" encoding="utf-8"?>
<!-- Generator: Adobe Illustrator 19.0.0, SVG Export Plug-In . SVG Version: 6.00 Build 0)  -->
<svg version="1.1" baseProfile="basic" id="Capa_1" xmlns="http://www.w3.org/2000/svg" xmlns:xlink="http://www.w3.org/1999/xlink"
	 x="0px" y="0px" viewBox="0 0 500 221.2" xml:space="preserve">
<style type="text/css">
	.st0{fill:#434142;}
</style>
<g id="XMLID_14_">
	<path id="XMLID_29_" class="st0" d="M103.5,87l13.5,46.6h18.1L148.6,87c0.2-0.8,0.5-1.8,0.8-2.9c1.7-5.8,3-11.1,3.8-15.8
		c0.3,5.3,0.6,9.3,1,12.2c0.2,2.9,0.6,6.3,1.1,10.1l5.8,43h25.3l-15.3-99h-26.9l-15.1,50.9c-1.2,4.4-1.9,6.9-2,7.6
		c-0.6,2.8-0.9,4.7-1,5.9c-0.5-3.5-1.3-7.5-2.6-11.7c-0.1-0.3-0.3-0.7-0.5-1.6l-15-51.1H81l-24.2,154H82l14.7-98
		c0.1-1.3,0.3-3.1,0.6-5.6c0.3-2.4,0.5-4.3,0.6-5.6c0.3-2.4,0.7-6.2,1-11.1c0.6,4.4,1.8,9.6,3.7,15.8
		C103.1,85.2,103.3,86.2,103.5,87z"/>
	<path id="XMLID_44_" class="st0" d="M221.5,115.6H260l5,18h27l-34.4-99h-34l-34.3,99h27L221.5,115.6z M237.3,63.7
		c0.5-2,1.1-4.2,1.8-6.4c0.5-2.4,1-4.7,1.6-7c0.6,2.5,1.3,5.4,2.1,8.5c0.6,2.7,1.1,4.4,1.3,5l10.1,32.9h-27L237.3,63.7z"/>
	<polygon id="XMLID_45_" class="st0" points="316,133.6 343,133.6 343,57.6 365,57.6 365,34.6 294,34.6 294,57.6 316,57.6 	"/>
	<polygon id="XMLID_46_" class="st0" points="371,34.6 371,57.6 393,57.6 393,133.6 420,133.6 420,57.6 442,57.6 442,34.6 	"/>
	<path id="XMLID_47_" class="st0" d="M112.1,155.7c1.5-1.5,3.2-2.6,5.1-3.5c2-0.8,4.1-1.2,6.2-1.2c2.2,0,4.2,0.4,6.2,1.2
		c1.7,0.7,3.3,1.7,4.6,3l4-4c-1.9-1.8-4-3.2-6.4-4.2c-2.7-1.1-5.5-1.7-8.4-1.7c-2.9,0-5.7,0.6-8.4,1.7c-2.6,1.1-4.9,2.6-6.9,4.6
		c-2,2-3.5,4.3-4.6,6.9c-1.1,2.7-1.7,5.5-1.7,8.4c0,2.9,0.6,5.7,1.7,8.4c1.1,2.6,2.6,4.9,4.6,6.9c2,2,4.3,3.5,6.9,4.6
		c2.7,1.1,5.5,1.7,8.4,1.7c2.9,0,5.7-0.6,8.4-1.7c2.4-1,4.5-2.4,6.4-4.2l-4-4c-1.4,1.2-2.9,2.2-4.6,3c-2,0.8-4.1,1.2-6.2,1.2
		c-2.2,0-4.2-0.4-6.2-1.2c-1.9-0.8-3.6-2-5.1-3.5c-1.5-1.5-2.6-3.2-3.4-5.1c-0.8-2-1.2-4.1-1.2-6.3c0-2.2,0.4-4.2,1.2-6.2
		C109.5,158.9,110.6,157.2,112.1,155.7z"/>
	<path id="XMLID_50_" class="st0" d="M140.7,188.6h6.4l2.1-5h17.5l2.1,5h6.4L158,145.3L140.7,188.6z M151.7,177.6l6.3-15.9l6.4,15.9
		H151.7z"/>
	<path id="XMLID_51_" class="st0" d="M199.5,169.9c-2.2-2.6-5.7-4.2-10.6-4.8c-3.2-0.4-5.5-1.4-6.8-3.1c-0.7-1-1.1-2-1.1-3.1
		c0-1.3,0.3-2.6,1-3.9c1.2-2.5,3.4-3.8,6.4-3.8c2.7,0,4.9,0.8,6.3,2.5c1.2,1.5,1.8,3.8,1.8,5.8h5.8c0-4-1.3-7.8-3.9-10.4
		c-2.6-2.6-5.9-3.8-9.9-3.8c-4.4,0-7.8,1.6-10.2,4.7c-2,2.5-3,5.5-3,8.8c0,2.8,1,5.3,2.9,7.4c2.3,2.6,5.7,4.1,10.2,4.6
		c3.2,0.3,5.4,1.2,6.6,2.5c0.9,0.7,1.3,1.8,1.3,3.1c0,2-0.7,3.6-2.2,4.6c-1.5,1.1-3.2,1.6-5.4,1.6c-1.7,0-3.2-0.3-4.6-1.3
		c-1.7-1.2-2.5-2.9-2.5-4.9h-5.8c0,4,1.4,6.7,4.1,9.1c2.5,2.1,5.5,3,8.9,3c3.9,0,7.1-1.1,9.6-3.3c2.5-2.2,3.8-4.9,3.8-7.9
		C202,174.4,201.2,171.9,199.5,169.9z"/>
	<path id="XMLID_54_" class="st0" d="M201.7,188.6h6.4l2.1-5h17.5l2.1,5h6.4L219,145.3L201.7,188.6z M212.7,177.6l6.3-15.9l6.4,15.9
		H212.7z"/>
	<path id="XMLID_55_" class="st0" d="M260,169.6h11.1l-0.1,0.6c-0.2,1-0.5,2.1-1,3c-0.4,1-0.9,1.9-1.5,2.7c-0.6,0.8-1.2,1.7-2,2.4
		c-0.7,0.7-1.5,1.4-2.3,2c-0.8,0.6-1.8,1.1-2.7,1.5c-1,0.4-2,0.7-3,0.9c-1.1,0.2-2.1,0.3-3.2,0.3c-1.1,0-2.1-0.1-3.2-0.3
		c-1-0.2-2-0.5-3-0.9c-1-0.4-1.9-0.9-2.7-1.5c-0.8-0.6-1.6-1.2-2.4-2c-0.7-0.7-1.4-1.5-2-2.4c-0.6-0.9-1.1-1.8-1.5-2.7
		c-0.4-1-0.7-2-1-3c-0.2-1.1-0.3-2.2-0.3-3.2c0-1.1,0.1-2.2,0.3-3.2c0.2-1.1,0.5-2.1,1-3c0.4-1,0.9-1.9,1.5-2.7
		c0.6-0.8,1.2-1.6,2-2.4c0.7-0.7,1.5-1.4,2.4-2c0.9-0.6,1.8-1.1,2.7-1.5c1-0.4,2-0.7,3-0.9c1.1-0.2,2.2-0.3,3.2-0.3
		c1.1,0,2.2,0.1,3.2,0.3c1,0.2,2,0.5,3,0.9c1,0.4,1.9,0.9,2.7,1.5c0.8,0.5,1.5,1.1,2.2,1.8l3.9-3.9c-0.9-0.9-1.9-1.8-3-2.5
		c-1.1-0.8-2.3-1.4-3.7-2c-1.3-0.6-2.6-1-4-1.3c-1.4-0.3-2.9-0.4-4.4-0.4c-1.5,0-2.9,0.1-4.4,0.4c-1.4,0.3-2.7,0.7-4,1.3
		c-1.3,0.5-2.5,1.2-3.7,2c-1.1,0.8-2.2,1.7-3.2,2.6c-1,1-1.8,2.1-2.6,3.2c-0.8,1.2-1.5,2.4-2,3.7c-0.5,1.3-1,2.6-1.3,4
		c-0.3,1.4-0.4,2.9-0.4,4.4c0,1.5,0.2,2.9,0.4,4.4c0.3,1.4,0.7,2.7,1.3,4.1c0.6,1.3,1.2,2.5,2,3.7c0.8,1.1,1.7,2.2,2.6,3.2
		c1,1,2,1.8,3.2,2.6c1.2,0.8,2.4,1.4,3.7,2c1.3,0.6,2.7,1,4,1.3c1.5,0.3,2.9,0.4,4.4,0.4c1.5,0,2.9-0.2,4.4-0.4
		c1.4-0.3,2.7-0.7,4-1.3c1.3-0.6,2.5-1.2,3.7-2c1.2-0.8,2.2-1.7,3.2-2.6c1-1,1.9-2.1,2.6-3.2c0.8-1.2,1.5-2.4,2-3.7
		c0.6-1.3,1-2.7,1.3-4.1c0.3-1.4,0.5-2.9,0.5-4.4v-2.4h-17V169.6z"/>
	<path id="XMLID_58_" class="st0" d="M303,174.1c3.3-3.3,4.9-7.2,4.9-11.9s-1.6-8.5-4.9-11.8c-3.3-3.3-7.2-4.8-11.8-4.8H280v43h7
		v-10h5.9l7.7,10h7.8l-9.2-11.7C300.6,176.2,301.8,175.2,303,174.1z M291.1,172.6H287v-21h4.1c3,0,5.5,1,7.5,3.1
		c2.1,2.1,3.1,4.6,3.1,7.5s-1,5.3-3.1,7.4C296.6,171.7,294.1,172.6,291.1,172.6z"/>
	<path id="XMLID_61_" class="st0" d="M310.6,188.6h6.4l2.1-5h17.5l2.1,5h6.4l-17.3-43.3L310.6,188.6z M321.6,177.6l6.3-15.9
		l6.4,15.9H321.6z"/>
	<polygon id="XMLID_62_" class="st0" points="374,173.2 348,145.4 348,188.6 354,188.6 354,160.4 379,188.6 379,145.6 374,145.6 	
		"/>
	<path id="XMLID_65_" class="st0" d="M407.7,151.8c-2-2-4.3-3.5-6.9-4.6c-2.6-1.1-5.4-1.6-8.4-1.6H383v43h9.4c3,0,5.8-0.6,8.4-1.7
		c2.6-1.1,4.9-2.6,6.9-4.6c2-2,3.5-4.3,4.6-6.9c1.2-2.7,1.7-5.5,1.7-8.4c0-2.9-0.6-5.7-1.7-8.4C411.2,156,409.7,153.7,407.7,151.8z
		 M406.8,173.1c-0.8,1.8-1.9,3.5-3.4,5c-1.4,1.4-3.1,2.5-5,3.3c-1.9,0.8-4,1.2-6.1,1.2H389v-31h3.4c2.1,0,4.1,0.3,6.1,1.1
		c1.9,0.8,3.5,1.9,5,3.3c1.5,1.4,2.6,3,3.4,4.9c0.8,1.9,1.2,3.9,1.2,6.1S407.7,171.2,406.8,173.1z"/>
	<polygon id="XMLID_66_" class="st0" points="417,188.6 442,188.6 442,182.6 423,182.6 423,177.6 438,177.6 438,171.6 423,171.6 
		423,151.6 442,151.6 442,145.6 417,145.6 	"/>
</g>
</svg>
