<?xml version="1.0" encoding="utf-8"?>
<!-- Generator: Adobe Illustrator 19.0.0, SVG Export Plug-In . SVG Version: 6.00 Build 0)  -->
<svg version="1.0" id="Capa_1" xmlns="http://www.w3.org/2000/svg" xmlns:xlink="http://www.w3.org/1999/xlink" x="0px" y="0px"
	 viewBox="0 0 612 792" style="enable-background:new 0 0 612 792;" xml:space="preserve">
<path d="M805,419.2c-2.6-0.3-5.2-0.4-7.8-0.7c-1.6-0.1-3.2-0.3-4.8-1.5c0.8-0.2,1.3-0.5,1.8-0.6c1.5-0.3,2.9-0.5,4.4-0.7
	c0.4-0.1,0.9-0.3,1.2-0.6c0.6-0.5,0.4-1.3-0.3-1.5c-0.3-0.1-0.5-0.2-0.8-0.2c-2.2-0.1-4.1-1.1-5.9-2.3c-0.8-0.5-1.9-0.8-2.9-1
	c-1.5-0.3-3.1-0.3-4.6-0.7c-1.1-0.3-2.2-0.9-3.1-1.6c-0.9-0.9-1.9-1.5-3.2-1.6c-0.5,0-0.9-0.2-1.4-0.2c-2.8,0-5.4-1.1-8.1-1.7
	c-6.3-1.3-12.6-2.3-19-2.7c-11.8-0.7-23.6-1.4-35.4-2c-6.4-0.3-12.8-0.5-19.1-0.8c-9.4-0.5-18.8-1.1-28.2-1.6
	c-4.7-0.2-9.4-0.3-14.1-0.6c-2-0.1-4-0.4-5.9-0.7c-1.4,0-2.8,0-4.2,0c-2.4,0.2-4.8,0.4-7.2,0.7c-9.8,1.3-19.6,0.8-29.5,0.9
	c-7.7,0.1-15.4,0.4-23,0.6c-1.9,0.1-3.8,0.1-5.8-0.1c-2.5-0.3-5,0.1-7.5,0.1c-2.2,0-4.4-0.2-6.5-0.2c-2.5-0.1-5-0.1-7.5-0.1
	c-0.8,0-1.5-0.3-2.3-0.3c-7.4,0-14.8-0.1-22.2,0c-2.8,0-5.6,0.3-8.4,0.2c-7.4-0.1-14.9-0.3-22.3-0.3h-72.4c-3.3-0.2-6.7-0.4-10-0.6
	c-2.7-0.2-5.5-0.2-8.2-0.4c-1.2-0.1-2.3-0.2-3.5-0.1c-0.4,0-1.1,0.2-1.2,0.5c-0.1,0.2-0.2,0.4-0.4,0.6H154.5
	c-1.8-0.1-3.6-0.2-5.4-0.3c-4.7-0.2-9.4-0.3-14.1-0.6c-2-0.1-4-0.4-5.9-0.7c-1.4,0-2.8,0-4.2,0c-2.4,0.2-4.8,0.4-7.2,0.7
	c-3.9,0.5-7.9,0.7-11.8,0.8H-31.1v0.4c-5.2,0.2-10.3,0.5-15.5,0.7c-4.3,0.1-8.5,0.2-12.8,0.1c-13.5-0.1-27-1-40.4-1.8
	c-2.7-0.2-5.5-0.2-8.2-0.4c-1.2-0.1-2.3-0.2-3.5-0.1c-0.4,0-1.1,0.2-1.2,0.5c-1,2-3,2.2-4.8,2.3c-2.7,0.2-5.4,0.1-8.1-0.1
	c-1.1-0.1-1.8,0.4-2.8,1.2c0.5,0.2,0.9,0.5,1.4,0.6c2.6,0.4,5.3,0.7,7.9,1.1c0.3,0,0.6,0,0.8,0.2c0.3,0.2,0.5,0.5,0.8,0.8
	c-0.3,0.3-0.6,0.8-1,0.8c-1.6,0-3.1-0.2-4.7-0.2c-0.9,0-1.8,0.1-2.7,0.4c-2.1,0.6-4.1,1.2-6.1,1.9c-1.1,0.4-2.4,0.7-2.8,2
	c0.1,0.6,0.5,1.2,0.4,1.7c-0.3,1-0.3,2.1-1.3,2.8c-0.9,0.7-0.6,1.6-0.3,2.4c0.3,0.6-0.1,1.8-0.7,1.9c0.6,0.7,1.3,1.5,2.2,2.5
	c-1.3,0.2-2.4,0.3-3.5,0.5c-1.3,0.2-2.6,0.3-3.9,0.6c-0.5,0.1-0.8,0.8-1.2,1.2c0,0-0.3-0.2-0.4-0.1c-0.7,0.8-1.4,1.6-2.2,2.4
	c0.6,0,1.1,0,1.5,0c-0.5,0.3-0.2,1.8-1.5,0.7c0.4,0.8,0.6,1.3,0.9,1.9c-0.5,0-0.9,0-1.5,0c0.1-0.3,0.1-0.6,0.2-1
	c-0.9,0.3-2,0.1-2.3,1.2c-0.1,0.4-1.1,1-0.3,1.4c0.6-0.4,1.1-0.7,1.6-1c0.2,1.1-2.4,1.8,0,2.8c-0.1,0.1-0.1,0.4-0.2,0.6
	c-0.5-0.4-1-0.7-1.4-1c-0.1,0.1-0.1,0.1-0.2,0.2c0.3,0.3,0.5,0.6,0.9,0.9c0.7,0.6,1.4,1.2,2.2,1.8c1.1,0.8,1.3,2.1,1.8,3.3
	c0,0.1-0.4,0.6-0.7,0.6c-2.2,0.3-4.4,0.5-6.7,0.7c-1.8,0.2-3.5,0.3-5.3,0.4c-0.7,0-1.4-0.1-2.3-0.2c0.7,1,1.2,1.7,1.9,2.5
	c-0.2,0.2-0.5,0.6-1.1,1.2c1.3,0.7,2.6,1.4,4.1,2.2c-0.9,0.7-1.7,1.4-2.6,2.1c1.4,1.1-0.7,1.8-0.6,3c0.3,0,0.5-0.1,0.8-0.1
	c-0.2,0.3-0.4,0.6-0.6,0.8c-1,0.8-0.5,1.4,0.2,2c0.2,0.2,0.5,0.7,0.4,0.9c-0.3,1-0.7,2-1,3c-0.1,0.2-0.3,0.4-0.4,0.4
	c-0.2,0-0.6-0.2-0.6-0.2c0.1-0.9-0.7-0.9-1.1-0.8c-0.4,0.1-0.6,0.7-0.9,1c-0.1,0.1,0,0.2-0.1,0.6c1.1,0.2,2.2,0.5,3.5,0.8
	c0,0.1,0,0.3,0.1,0.5c0.2-0.1,0.4-0.1,0.6-0.3c0.6-0.7,1.3-0.7,2-0.3c1.1,0.6,2.2,1.1,3.2,1.9c0.7,0.6,0.9,1.1,0.1,1.8
	c-0.2,0.2-0.3,0.5-0.5,0.7c0.3,0.1,0.5,0.3,0.8,0.4c1.1,0.4,2.2,0.7,3.3,1.3c-0.6,0.1-1.2,0.3-1.8,0.3c-4.8,0.1-9.6,0.2-14.5,0.3
	c-4.3,0.1-8.5-0.5-12.7-1.1c-0.5-0.1-0.9-0.1-1.4-0.1c-3.9,0.1-7.8,0.1-11.6,0.3c-1.4,0.1-2.7,0.6-4.1,0.9c0,0.1,0,0.2,0,0.2
	c4.2,1.5,8.5,2.3,12.8,3.2c3.9,0.8,7.8,0.9,11.7,1.6c2,0.3,3.9,0.9,5.8,1.5c1.8,0.6,3.6,1.4,5.4,2.1c-0.4,1-1.2,1.8-1,3.2
	c0.1,0.8-0.6,1.6-1.7,1.6c-0.9,0.1-1.8,0.2-3,0.3c1,1,1.9,1.8,2.7,2.7c-0.1,0.1-0.1,0.3-0.2,0.4c-0.9,0.1-1.9,0.2-2.8,0.4
	c-1.9,0.3-3.8,0.6-5.7,0.8c-0.9,0.1-1.8,0.1-2.7,0c-1.6-0.2-3.1,0-4.5,0.9c-0.1,0-0.1,0.2-0.2,0.4c2.6,0.5,5.2,0.9,8.1,1.4
	c-0.7,0.3-1.1,0.5-1.5,0.6c-0.6,0.1-1.2,0.1-1.7,0.2c-1,0.1-2.1,0.3-3.1,0.5c-0.8,0.2-1.9,0-2.1,1.3c-0.1,1,1,1.7,2,2.1
	c1.3,0.5,2.6,1.2,3.6,2.1c0.7,0.7,1.4,1.2,2.4,1.3c4.5,0.6,9,1.1,13.5,1.7c1.1,0.1,2.2,0.5,3.5,0.8c-0.9,1.5-2.1,1.8-3.3,2.3
	c-1.2,0.5-2.5,1.1-3.5,2c-1.3,1-1.1,1.5,0.5,2c2,0.6,3.9,1.1,5.9,1.6c1,0.2,1.7,0.6,2,1.7c0.1,0.3,0.6,0.8,0.9,0.8
	c6,0.9,12,1.8,18,2.5c6.9,0.7,13.8,1.1,20.7,1.6c14.9,1.1,29.8,1.3,44.8,1.2c7.8-0.1,15.7-0.7,23.5-0.9c4.1-0.1,8.2-0.2,12.2-0.3
	v1.3h532.2v-1.5c1.5,0,3-0.1,4.5-0.1c10.5-0.2,21-0.3,31.5-0.5c11.1-0.2,22.1-1,33.1-2.2c4.5-0.5,9-1.2,13.5-1.6
	c12.6-1.2,25.2-1.5,37.8-1.6c10.1-0.1,20.3-0.3,30.4-0.5c6.5-0.2,13.1-0.7,19.6-0.8c6.3,0,12.6,0.4,18.9,0.7
	c5.9,0.3,11.7,0.7,17.6,1.1c6.5,0.5,12.9-0.6,19.3-1.7c3.2-0.6,6.5-0.9,9.8-1.3c0.4-0.1,0.9-0.2,1.2-0.2c0.4-1.8-1.1-2.5-2.1-3.9
	c1.1,0,1.8,0.1,2.5,0c0.8-0.1,1.6-0.3,2.3-0.7c1.1-0.6,2.1-1.4,3.2-2.1c0.2-0.1,0.4-0.3,0.9-0.7c-1.6-0.4-2.9-0.8-4.3-1.2
	c0-0.2-0.1-0.3-0.1-0.5c0.6-0.3,1.2-0.8,1.9-1c0.6-0.2,1.3-0.1,1.8-0.3c0.6-0.2,1.4-0.4,1.7-0.9c0.9-1.3,2.1-1.3,3.5-1.1
	c2.9,0.4,5.7,0.8,8.6,1.2c0.6,0.1,1.3,0,1.9-0.1c0-0.1,0.1-0.3,0.1-0.4c-0.5-0.3-1-0.6-1.5-0.8c-1.2-0.4-2.4-0.8-3.6-1.2
	c-0.8-0.3-1.3-0.7-0.9-1.8c0.1-0.3-0.2-0.9-0.5-1.2c-0.8-0.6-0.7-1.1-0.1-1.6c1.4-1,2.8-1.8,4.2-2.8c0.2-0.1,0.4-0.3,0.5-0.5
	c0.7-1.6,1.4-3.3,2.1-5c0.4-1,1.1-1.2,1.9-1.3c2.1-0.1,4.1-0.2,6.2-0.3c0.4,0,0.7,0,1.2-0.3c-1.2-0.4-2.4-0.9-3.7-1.3
	c0-0.2,0-0.4,0-0.5c0.5-0.2,1.1-0.5,1.6-0.5c0.9,0.1,1.5,0,2-0.9c0.2-0.4,1.1-0.6,1.6-0.6c1.1-0.1,1.6-0.6,1.6-1.6
	c0-1.3,0.2-2.6,0-3.8c-0.1-0.9,0.3-1,0.9-1.1c3.4-0.5,6.8-0.9,10.1-1.4c0.4-0.1,0.9-0.2,1.7-0.5c-0.8-0.8-1.4-1.4-2-1.9
	c-0.3-0.3-0.8-0.5-1.1-0.9c-0.7-0.9-0.5-1.7,0.7-1.9c1.2-0.2,2.2-0.7,3.2-1.6c1.1-1.1,2.8-1.6,4.3-2.3c0.6-0.3,0.9-0.4,1.2-1.1
	c0.3-0.9,1-1.6,1-2.7c0-0.3,0.9-0.7,1.3-1c0.4-0.3,1.1-0.7,1-0.9c-0.1-0.4-0.5-0.9-0.9-1.2c-1.4-1.1-3-2-4.4-3.1
	c-0.6-0.4-0.9-1.1-0.5-1.7c1.6-0.3,3.1-0.6,4.9-0.9c-0.4-0.7-0.7-1.1-0.9-1.5c0.7-1.4,1.8-2.1,3.4-2.5c1.6-0.4,2.8-1.9,4.2-2.8
	c-0.3-0.9-0.6-1.7-1-2.6c-0.2-0.3-0.6-0.5-0.9-0.7c-1.5-1.1-1.4-2.3,0.2-3.2c1.4-0.8,2.9-1.5,4.3-2.3c0.7-0.4,1.3-0.9,1.9-1.5
	c0.3-0.3,0.4-0.7,0.6-1.1C805.7,419.6,805.3,419.3,805,419.2z M-145.6,429.7c-0.5-0.3-1.1-0.6-1.7-0.9c1.1-1.8,1.1-1.8,1.7-0.9
	c-0.3,0-0.5,0-0.8-0.1c0.4,0.6,0.7,1.1,1,1.7C-145.5,429.6-145.5,429.6-145.6,429.7z M-157,476.1c0-0.1,0-0.3,0.1-0.4
	c2-0.6,3.5-0.3,4.2,0.9C-154.3,476.4-155.6,476.2-157,476.1z"/>
</svg>
