<?xml version="1.0" encoding="UTF-8"?>
<svg version="1.1" xmlns="http://www.w3.org/2000/svg" width="250" height="136">
<path d="M0 0 C6.65744308 5.95033991 10.41770768 12.94288116 14.38671875 20.8671875 C14.99451683 22.06252442 15.60334615 23.25733746 16.21313477 24.45166016 C17.48865921 26.95203337 18.75959118 29.45466221 20.02734375 31.95898438 C22.80199001 37.43171071 25.63091406 42.87626289 28.4564209 48.32284546 C30.01401846 51.32711208 31.56732212 54.33359718 33.12109375 57.33984375 C35.42850187 61.80296719 37.73747602 66.26527607 40.04808044 70.72674561 C41.41563611 73.36735212 42.78279222 76.00816541 44.14993286 78.64898682 C44.79823503 79.90100095 45.4467277 81.15291646 46.09542847 82.40472412 C58.90656645 107.12729556 58.90656645 107.12729556 56.30078125 115.93359375 C54.04957662 121.00361444 50.89191959 124.2166408 45.94921875 126.7421875 C40.5817447 128.39046693 35.22940863 128.57508494 30.01171875 126.4296875 C25.15664231 123.80065401 22.18429028 119.45453972 18.9296875 115.10546875 C17.09822508 112.50074071 17.09822508 112.50074071 13.94921875 111.7421875 C12.12011839 111.63906574 10.28752788 111.59367876 8.45556641 111.58105469 C7.3307486 111.57144714 6.20593079 111.5618396 5.04702759 111.55194092 C3.8313913 111.54769104 2.615755 111.54344116 1.36328125 111.5390625 C0.1142099 111.53336243 -1.13486145 111.52766235 -2.42178345 111.52178955 C-5.06638228 111.51233652 -7.71086755 111.50544112 -10.35546875 111.50195312 C-13.73713211 111.4964705 -17.1183924 111.47244294 -20.49992943 111.44398117 C-23.73299521 111.42083058 -26.96608168 111.41890366 -30.19921875 111.4140625 C-31.41080658 111.4017157 -32.62239441 111.3893689 -33.87069702 111.37664795 C-35.00181915 111.37964905 -36.13294128 111.38265015 -37.29833984 111.38574219 C-38.29078705 111.38209656 -39.28323425 111.37845093 -40.30575562 111.37469482 C-43.54074495 111.80778181 -45.41423331 112.85124044 -48.05078125 114.7421875 C-49.46438295 116.60900962 -49.46438295 116.60900962 -50.48828125 118.6796875 C-53.09208864 123.13399952 -56.12643 125.61018057 -60.98828125 127.4921875 C-67.29169746 128.25623795 -72.43002075 127.7004825 -78.05078125 124.7421875 C-78.77265625 123.9996875 -79.49453125 123.2571875 -80.23828125 122.4921875 C-80.83640625 121.9146875 -81.43453125 121.3371875 -82.05078125 120.7421875 C-87.30927901 121.38186165 -92.41957785 123.29198165 -97.48046875 124.8046875 C-103.17749513 126.30062441 -108.71404829 126.86644207 -114.59350586 126.91918945 C-115.84848373 126.93202469 -117.10346161 126.94485992 -118.39646912 126.95808411 C-119.74868367 126.96625132 -121.10090275 126.97369509 -122.453125 126.98046875 C-123.48764392 126.98658204 -123.48764392 126.98658204 -124.54306221 126.99281883 C-128.18975641 127.01357839 -131.83641404 127.02792662 -135.4831543 127.03735352 C-139.22994441 127.04843238 -142.97614309 127.08287755 -146.72272396 127.12252522 C-149.62338809 127.14876512 -152.52391217 127.15705152 -155.42468452 127.16063499 C-156.80528345 127.1654773 -158.18587712 127.17702347 -159.56635857 127.19567299 C-167.97942019 127.30232224 -175.08976225 127.38438668 -181.55992126 121.33003235 C-186.9237641 115.33987953 -187.34686236 109.96541636 -187.32543945 102.30541992 C-187.33055038 101.36169022 -187.33566132 100.41796051 -187.34092712 99.44563293 C-187.3548131 96.32957596 -187.35386681 93.21374047 -187.3515625 90.09765625 C-187.35545051 87.92678241 -187.3597854 85.75590933 -187.36454773 83.58503723 C-187.3720082 79.03477513 -187.37172028 74.48459062 -187.36645508 69.93432617 C-187.36066651 64.11376617 -187.37757767 58.29352501 -187.40079975 52.47301769 C-187.41556006 47.98877618 -187.41640555 43.504611 -187.41329002 39.0203495 C-187.41380227 36.87502728 -187.41902179 34.72970068 -187.42910194 32.58440208 C-187.44149076 29.57843952 -187.43465933 26.573092 -187.4230957 23.56713867 C-187.43073944 22.68738373 -187.43838318 21.80762878 -187.44625854 20.9012146 C-187.39275098 14.58221348 -186.52931195 8.78455457 -182.40234375 3.71875 C-181.83257812 3.27273437 -181.2628125 2.82671875 -180.67578125 2.3671875 C-180.11117187 1.90570312 -179.5465625 1.44421875 -178.96484375 0.96875 C-174.81489791 -1.69060305 -171.20319016 -2.50971665 -166.30517578 -2.5324707 C-165.17274445 -2.54200272 -164.04031311 -2.55153473 -162.87356567 -2.56135559 C-161.04702957 -2.55998848 -161.04702957 -2.55998848 -159.18359375 -2.55859375 C-157.91667694 -2.56287888 -156.64976013 -2.567164 -155.3444519 -2.57157898 C-152.65950691 -2.57732217 -149.9749461 -2.57876023 -147.29003906 -2.57348633 C-144.56493514 -2.56888052 -141.84028002 -2.57567105 -139.11523438 -2.59399414 C-95.05530343 -2.88754908 -95.05530343 -2.88754908 -79.92578125 11.1796875 C-73.26542112 18.64736401 -71.66799578 26.52819511 -71.77734375 36.29296875 C-72.5324075 45.81755869 -76.86056847 52.69995105 -83.05078125 59.7421875 C-82.30183594 60.01160156 -81.55289063 60.28101562 -80.78125 60.55859375 C-78.17136939 61.68991539 -76.4783676 62.81175731 -74.36328125 64.6796875 C-73.78191406 65.18371094 -73.20054688 65.68773438 -72.6015625 66.20703125 C-71.05078125 67.7421875 -71.05078125 67.7421875 -69.05078125 70.7421875 C-64.1354342 61.45507296 -59.2529559 52.15231904 -54.44786072 42.80761719 C-51.00238519 36.10858379 -47.53164663 29.42289071 -44.05078125 22.7421875 C-43.54417969 21.76540039 -43.03757813 20.78861328 -42.515625 19.78222656 C-41.21064332 17.28040584 -39.88565636 14.7906544 -38.55078125 12.3046875 C-38.0103418 11.26042603 -38.0103418 11.26042603 -37.45898438 10.19506836 C-34.37183924 4.54261891 -30.32482184 0.42553856 -24.56640625 -2.53515625 C-15.806305 -5.08766851 -7.80556134 -5.08677031 0 0 Z " fill="#FED402" transform="translate(190.05078125,6.2578125)"/>
</svg>
