<?xml version="1.0" encoding="utf-8"?>
<!-- Generator: Adobe Illustrator 19.0.0, SVG Export Plug-In . SVG Version: 6.00 Build 0)  -->
<svg version="1.1" id="Capa_1" xmlns="http://www.w3.org/2000/svg" xmlns:xlink="http://www.w3.org/1999/xlink" x="0px" y="0px"
	 viewBox="0 0 612 792" enable-background="new 0 0 612 792" xml:space="preserve">
<path d="M2032,367.2c-8.9-0.9-17.8-1.5-26.7-2.3c-5.4-0.5-10.8-0.9-16.3-5.1c2.6-0.8,4.3-1.6,6.1-1.9c4.9-0.9,9.9-1.6,14.9-2.5
	c1.5-0.3,3.1-1,4.2-2c2-1.8,1.4-4.3-1.2-5.3c-0.9-0.3-1.8-0.6-2.7-0.6c-7.6-0.4-14-3.7-20.2-7.8c-2.9-1.8-6.4-2.9-9.8-3.6
	c-5.2-1.1-10.7-1.1-15.8-2.4c-3.7-1-7.6-2.9-10.4-5.5c-3.2-2.9-6.3-5.1-10.7-5.4c-1.6-0.1-3.2-0.6-4.7-0.6c-9.6,0-18.4-3.7-27.6-5.6
	c-21.4-4.5-42.9-7.9-64.8-9.2c-40.2-2.4-80.4-4.8-120.5-6.9c-21.7-1.2-43.4-1.6-65.1-2.7c-31.9-1.6-63.9-3.6-95.8-5.3
	c-16-0.8-32-1.1-47.9-2c-6.7-0.4-13.4-1.5-20.2-2.3c-4.8,0-9.6,0-14.4,0c-8.2,0.8-16.4,1.4-24.6,2.4c-33.3,4.4-66.8,2.6-100.2,3.2
	c-26.1,0.5-52.2,1.3-78.3,2.2c-6.6,0.2-13,0.3-19.7-0.4c-8.4-1-17.1,0.3-25.7,0.3c-7.4,0-14.8-0.5-22.3-0.7
	c-8.5-0.2-17-0.2-25.6-0.4c-2.6-0.1-5.3-0.9-7.9-1c-25.1-0.1-50.3-0.2-75.4-0.1c-9.5,0-19,0.9-28.6,0.8c-25.3-0.2-50.6-1-75.9-1.1
	H752.1c-11.3-0.7-22.7-1.4-34-2.1c-9.3-0.6-18.7-0.8-28.1-1.3c-3.9-0.2-7.9-0.5-11.8-0.5c-1.4,0-3.6,0.7-4.1,1.7
	c-0.4,0.8-0.8,1.5-1.3,2.1h-853.4c-6.1-0.3-12.3-0.7-18.4-1c-16-0.8-32-1.1-47.9-2c-6.7-0.4-13.4-1.5-20.2-2.3c-4.8,0-9.6,0-14.4,0
	c-8.2,0.8-16.4,1.4-24.6,2.4c-13.4,1.8-26.8,2.5-40.2,2.8h-465.7v1.4c-17.6,0.8-35.2,1.8-52.8,2.4c-14.5,0.5-29,0.5-43.5,0.4
	c-45.9-0.4-91.7-3.4-137.6-6.3c-9.3-0.6-18.7-0.8-28.1-1.3c-3.9-0.2-7.9-0.5-11.8-0.5c-1.4,0-3.6,0.7-4.1,1.7
	c-3.4,6.9-10.2,7.4-16.3,7.8c-9.1,0.6-18.3,0.3-27.4-0.3c-3.8-0.3-6.1,1.2-9.4,4.1c1.9,0.8,3.2,1.7,4.6,1.9
	c8.9,1.3,17.9,2.4,26.8,3.6c0.9,0.1,2,0.1,2.7,0.6c1,0.7,1.8,1.7,2.7,2.6c-1.1,1-2.2,2.8-3.2,2.8c-5.3,0-10.6-0.6-15.9-0.6
	c-3,0-6.2,0.5-9.1,1.3c-7,2-13.9,4.1-20.8,6.6c-3.8,1.4-8.2,2.4-9.4,6.7c0.5,2,1.7,4.1,1.3,5.8c-0.9,3.4-1.2,7.1-4.4,9.5
	c-3,2.2-2.2,5.4-1.1,8.3c0.9,2.2-0.5,6-2.5,6.6c2.2,2.5,4.5,5.2,7.4,8.6c-4.5,0.6-8.2,1.1-11.9,1.6c-4.4,0.6-8.9,1-13.2,2.1
	c-1.7,0.5-2.8,2.8-4.2,4.2c0.1,0-1.1-0.7-1.4-0.5c-2.5,2.6-4.9,5.3-7.6,8.3c2,0,3.6,0,5.3,0c-1.7,1.1-0.6,6.1-5.1,2.4
	c1.3,2.8,2.1,4.5,3.1,6.6c-1.7,0-3.2,0-5.1,0c0.2-1,0.4-1.9,0.7-3.5c-3.2,0.9-6.6,0.5-7.9,4c-0.5,1.4-3.8,3.3-1.1,4.7
	c2-1.3,3.6-2.4,5.4-3.6c0.7,3.6-8.2,6-0.2,9.6c-0.2,0.5-0.5,1.3-0.8,2.2c-1.8-1.2-3.3-2.3-4.9-3.4c-0.2,0.2-0.4,0.4-0.6,0.6
	c1,1,1.9,2,2.9,2.9c2.4,2.1,4.9,4.2,7.5,6.1c3.9,2.7,4.6,7.1,6,11.1c0.1,0.4-1.5,2-2.4,2.1c-7.5,0.9-15.1,1.5-22.7,2.2
	c-6,0.6-12,1.2-18.1,1.5c-2.4,0.1-4.9-0.4-7.9-0.7c2.4,3.3,4.2,5.6,6.4,8.7c-0.7,0.8-1.8,2.1-3.7,4.2c4.4,2.4,8.7,4.6,13.9,7.4
	c-3,2.4-5.9,4.7-8.9,7.1c4.7,3.7-2.4,6.2-2.1,10.1c0.9-0.1,1.6-0.2,2.7-0.4c-0.8,1.1-1.2,2.1-2,2.7c-3.3,2.6-1.6,4.6,0.6,6.9
	c0.8,0.8,1.7,2.3,1.4,3.2c-0.9,3.5-2.2,6.8-3.5,10.2c-0.2,0.6-0.9,1.4-1.5,1.4c-0.7,0.1-2-0.6-2-0.8c0.3-3.1-2.4-3-3.7-2.6
	c-1.3,0.4-2.1,2.3-3.1,3.5c-0.2,0.3-0.1,0.8-0.4,2.2c3.8,0.8,7.7,1.7,11.8,2.6c0,0.2,0.1,1,0.2,1.7c0.7-0.3,1.5-0.4,2-0.9
	c2-2.2,4.5-2.2,6.8-1c3.7,1.9,7.5,3.8,10.8,6.6c2.4,2,3.2,3.8,0.3,6c-0.7,0.6-1.1,1.6-1.6,2.5c0.9,0.4,1.7,1,2.6,1.3
	c3.7,1.3,7.3,2.5,11.2,4.4c-2,0.3-4.1,0.9-6.1,0.9c-16.4,0.4-32.8,0.7-49.2,0.9c-14.5,0.2-28.9-1.6-43.3-3.9
	c-1.6-0.2-3.2-0.4-4.8-0.4c-13.2,0.3-26.4,0.4-39.5,1.2c-4.7,0.3-9.2,2-13.9,3.1c0,0.3,0,0.5,0,0.8c14.2,5.1,28.9,7.7,43.6,10.7
	c13.3,2.7,26.6,3.2,39.9,5.4c6.6,1.1,13.2,3.1,19.6,5.2c6.2,2,12.2,4.7,18.3,7.1c-1.2,3.4-4.1,6.3-3.5,10.8c0.3,2.8-2.1,5.3-5.7,5.6
	c-3.1,0.3-6.3,0.7-10.2,1.1c3.3,3.2,6.3,6.1,9.3,9.1c-0.2,0.4-0.4,0.9-0.5,1.3c-3.2,0.4-6.5,0.8-9.7,1.2c-6.5,0.9-12.9,1.9-19.4,2.6
	c-3,0.3-6.1,0.2-9.2-0.1c-5.4-0.6-10.5,0-15.3,2.9c-0.3,0.2-0.3,0.7-0.6,1.5c8.9,1.5,17.7,3,27.5,4.8c-2.3,0.9-3.7,1.8-5.1,2.1
	c-1.9,0.4-3.9,0.3-5.9,0.6c-3.5,0.5-7.1,1-10.5,1.8c-2.8,0.6-6.6,0.1-7,4.4c-0.3,3.3,3.4,5.9,6.9,7.2c4.4,1.7,8.9,4,12.3,7.1
	c2.5,2.3,4.9,3.9,8.1,4.3c15.3,1.9,30.7,3.7,46,5.6c3.7,0.5,7.4,1.6,11.8,2.6c-2.9,5-7.3,6.1-11.4,7.9c-4.2,1.8-8.5,3.8-12,6.7
	c-4.3,3.4-3.7,5.2,1.6,6.7c6.6,1.9,13.3,3.9,20,5.5c3.4,0.8,5.8,2.1,6.7,5.8c0.3,1.1,2,2.6,3.2,2.8c20.4,2.9,40.7,6.3,61.2,8.4
	c23.5,2.4,47,3.8,70.5,5.5c50.7,3.6,101.5,4.6,152.3,4c26.6-0.3,53.3-2.3,79.9-3c13.9-0.4,27.7-0.8,41.6-1.1v4.3H998.3v-5.3
	c5.1-0.1,10.1-0.2,15.2-0.3c35.7-0.7,71.4-1,107.2-1.6c37.6-0.7,75.1-3.5,112.5-7.3c15.4-1.6,30.6-4.1,46-5.6
	c42.8-4.1,85.7-5.2,128.6-5.6c34.5-0.3,69.1-0.9,103.6-1.7c22.2-0.6,44.5-2.5,66.7-2.6c21.4-0.1,42.9,1.2,64.3,2.3
	c20,1,39.9,2.3,59.8,3.7c22.3,1.6,44-1.9,65.8-5.8c11-1.9,22.2-3,33.3-4.5c1.5-0.2,3-0.6,4.2-0.8c1.4-6.1-3.7-8.5-7.1-13.2
	c3.6,0,6.2,0.3,8.5-0.1c2.7-0.5,5.4-1.2,7.8-2.5c3.8-2.1,7.2-4.7,10.8-7.2c0.7-0.5,1.4-1.1,3.1-2.5c-5.4-1.5-10-2.7-14.5-3.9
	c-0.2-0.5-0.3-1-0.5-1.6c2.1-1.2,4.1-2.7,6.3-3.5c2-0.7,4.3-0.4,6.3-1c2.1-0.7,4.6-1.4,5.8-3c3.2-4.3,7.2-4.5,11.8-3.8
	c9.8,1.4,19.5,2.9,29.3,4.1c2.1,0.3,4.3-0.1,6.5-0.3c0.1-0.5,0.3-1,0.4-1.5c-1.7-0.9-3.4-2-5.2-2.6c-4-1.5-8.1-2.6-12.1-4.1
	c-2.8-1-4.5-2.5-3.2-6c0.4-1-0.7-3.2-1.8-3.9c-2.9-1.9-2.4-3.8-0.2-5.3c4.7-3.3,9.6-6.3,14.4-9.4c0.7-0.5,1.5-1.1,1.8-1.9
	c2.4-5.6,4.9-11.2,7-16.9c1.2-3.3,3.6-4.2,6.5-4.3c7.1-0.4,14.1-0.6,21.2-0.9c1.3-0.1,2.5-0.1,3.9-0.9c-4.2-1.5-8.3-3-12.5-4.4
	c0-0.6,0-1.2,0-1.8c1.8-0.6,3.7-1.9,5.4-1.7c3.1,0.3,5.1,0.1,6.8-3c0.7-1.4,3.6-2,5.6-2.1c3.6-0.3,5.3-2,5.4-5.5
	c0.1-4.3,0.6-8.7,0-13c-0.4-3.1,1-3.3,3.1-3.6c11.5-1.5,23-3.1,34.4-4.7c1.5-0.2,2.9-0.8,5.7-1.6c-2.8-2.7-4.8-4.7-6.8-6.6
	c-1.2-1.1-2.6-1.8-3.6-3.1c-2.4-3.1-1.6-5.6,2.3-6.4c4.2-0.8,7.6-2.2,11-5.4c3.9-3.7,9.5-5.6,14.5-7.9c1.9-0.9,3.1-1.3,4-3.6
	c1.2-3,3.3-5.5,3.4-9.1c0-1.2,2.9-2.3,4.4-3.5c1.3-1,3.6-2.3,3.5-3.2c-0.2-1.5-1.8-3.1-3.2-4.1c-4.9-3.6-10-6.9-14.9-10.5
	c-2-1.5-3.2-3.7-1.8-5.8c5.5-1.1,10.6-2,16.6-3.2c-1.4-2.3-2.3-3.8-3.2-5.3c2.4-4.7,6-7,11.6-8.4c5.3-1.4,9.6-6.3,14.4-9.7
	c-1.1-2.9-2.1-6-3.5-8.8c-0.5-1.1-2-1.7-3.1-2.5c-4.9-3.6-4.8-7.8,0.6-10.8c4.9-2.8,9.9-5.1,14.8-7.9c2.4-1.4,4.6-3.2,6.6-5.1
	c1-0.9,1.4-2.4,2.1-3.6C2034.5,368.3,2033.3,367.3,2032,367.2z M-1201.4,402.7c-1.9-1-3.7-1.9-5.8-3c3.7-6.1,3.7-6.1,5.6-2.9
	c-0.9-0.1-1.5-0.2-2.9-0.3c1.3,2.2,2.4,3.9,3.4,5.6C-1201.1,402.3-1201.2,402.5-1201.4,402.7z M-1240.2,560.5c0.1-0.5,0.2-1,0.2-1.5
	c6.8-1.9,11.9-1.1,14.1,3.1C-1231,561.6-1235.6,561.1-1240.2,560.5z"/>
</svg>
