<?xml version="1.0" encoding="UTF-8"?>
<svg version="1.1" xmlns="http://www.w3.org/2000/svg" width="1604" height="900">
<path d="M0 0 C21.45 0 42.9 0 65 0 C65.33 61.38 65.66 122.76 66 186 C71.94 173.13 77.88 160.26 84 147 C90.5 133 90.5 133 93.61328125 126.30078125 C97.65158416 117.60261846 101.66980243 108.89519534 105.6875 100.1875 C106.06794464 99.36296326 106.44838928 98.53842651 106.84036255 97.68890381 C109.93882589 90.97326646 113.03649204 84.25726147 116.1340332 77.54119873 C118.73480105 71.90228689 121.33589136 66.26352398 123.9375 60.625 C124.30070343 59.83780579 124.66390686 59.05061157 125.03811646 58.23956299 C134.00134555 38.81521605 143.00118705 19.40788764 152 0 C176.42 0 200.84 0 226 0 C225.12379382 3.50482473 224.13131392 5.92557582 222.48046875 9.0859375 C221.9592041 10.08729736 221.43793945 11.08865723 220.90087891 12.12036133 C220.33546387 13.19439209 219.77004883 14.26842285 219.1875 15.375 C218.60145996 16.49479248 218.01541992 17.61458496 217.41162109 18.76831055 C213.23702787 26.71801709 208.9755583 34.61743331 204.65625 42.48925781 C200.62135769 49.84376607 196.64417165 57.22815331 192.6875 64.625 C192.37332123 65.21219818 192.05914246 65.79939636 191.73544312 66.40438843 C190.13233438 69.40081459 188.5298323 72.39756453 186.92773438 75.39453125 C177.22698788 93.54020068 167.49534398 111.66914733 157.73388672 129.78222656 C155.98999129 133.01857431 154.24680633 136.25530361 152.50390625 139.4921875 C151.92390869 140.565896 151.34391113 141.63960449 150.74633789 142.74584961 C149.58654835 144.90701763 148.43847382 147.07451543 147.30249023 149.24829102 C144.33679056 154.88519668 141.2217277 160.25398961 137.65625 165.53515625 C130.5570913 175.88513063 130.5570913 175.88513063 128.08984375 187.86181641 C129.57234415 194.42142028 132.8558169 200.16640812 136.01074219 206.05273438 C139.72282771 213.20039998 142.50281245 220.80228696 145.48297119 228.27487183 C147.40708644 233.07683046 149.37730532 237.85978891 151.34375 242.64453125 C152.131654 244.56585909 152.91941557 246.48724535 153.70703125 248.40869141 C154.47135047 250.27246245 155.23567329 252.13623203 156 254 C156.70704384 255.72444145 157.41407548 257.44888791 158.12109375 259.17333984 C161.76273879 268.05497793 165.40641607 276.93578082 169.05142212 285.81604004 C172.36769596 293.89545265 175.68247816 301.97547691 178.99716187 310.05554199 C180.00038176 312.50093055 181.00371419 314.9462729 182.00708008 317.39160156 C184.98033436 324.63797847 187.95311141 331.88454856 190.92280579 339.13238525 C192.22564114 342.31198846 193.52886523 345.49143225 194.83218384 348.6708374 C195.48317119 350.25904145 196.13403077 351.84729788 196.78475952 353.43560791 C200.87616978 363.42068101 204.98965009 373.39632115 209.125 383.36328125 C209.9963718 385.46539936 210.86770984 387.56753146 211.73901367 389.66967773 C213.42063727 393.72661697 215.10630781 397.78184276 216.79418945 401.83618164 C217.56737284 403.70062024 218.34041056 405.56511926 219.11328125 407.4296875 C219.4625769 408.26554886 219.81187256 409.10141022 220.17175293 409.96260071 C220.50090698 410.75853134 220.83006104 411.55446198 221.16918945 412.37451172 C221.59310722 413.39386307 221.59310722 413.39386307 222.02558899 414.43380737 C223.47272947 418.24497247 224.71084543 422.1325363 226 426 C201.25 426 176.5 426 151 426 C142.25 402.8125 142.25 402.8125 137.97996521 391.49674988 C134.39903841 382.00718996 130.81803442 372.5176592 127.23660278 363.02828979 C125.62330102 358.75366102 124.01007922 354.47900207 122.39685059 350.2043457 C121.18165129 346.98450301 119.96631456 343.76471221 118.75097656 340.54492188 C114.35231122 328.89045994 109.95760055 317.23451843 105.56777382 305.57672501 C103.98630704 301.37721802 102.4043309 297.17790287 100.82237911 292.97857857 C99.29551729 288.92525839 97.76956517 284.87159727 96.24429607 280.8176775 C95.52434458 278.90464958 94.80392261 276.99179962 94.08329773 275.07902527 C93.20450821 272.74640596 92.32644971 270.41351106 91.44929504 268.08027649 C89.04004347 261.68940196 86.56551417 255.32981772 84 249 C81.07348947 252.462753 78.85810843 255.88604053 76.80078125 259.921875 C76.23166016 261.02917969 75.66253906 262.13648438 75.07617188 263.27734375 C74.49416016 264.42332031 73.91214844 265.56929687 73.3125 266.75 C72.14348629 269.03725591 70.9729955 271.32375771 69.80078125 273.609375 C69.02988159 275.1248291 69.02988159 275.1248291 68.2434082 276.67089844 C67 279 67 279 66 280 C65.8912193 281.88526056 65.85310855 283.77461679 65.84178162 285.66297913 C65.8319928 286.89282028 65.82220398 288.12266144 65.81211853 289.38977051 C65.80621358 290.76513633 65.80040318 292.14050256 65.79467773 293.51586914 C65.78510455 294.9544249 65.77509481 296.39297781 65.76467896 297.83152771 C65.73756312 301.74868079 65.71658985 305.665846 65.69667697 309.58304143 C65.67485846 313.67236259 65.64744961 317.76164608 65.62062073 321.85093689 C65.57063774 329.59989665 65.52571979 337.34887727 65.48259836 345.09787792 C65.42405858 355.56535852 65.35774171 366.03278961 65.29184818 376.50022602 C65.18818584 393.00011736 65.09495501 409.50005093 65 426 C43.55 426 22.1 426 0 426 C0 285.42 0 144.84 0 0 Z " fill="#FFFFFF" transform="translate(644,474)"/>
<path d="M0 0 C1.12359924 -0.00744736 1.12359924 -0.00744736 2.26989746 -0.01504517 C4.72933907 -0.02955645 7.1887161 -0.03645185 9.64819336 -0.04199219 C10.49587217 -0.04481956 11.34355099 -0.04764694 12.21691704 -0.05056 C16.70695172 -0.06551131 21.19695463 -0.07476517 25.68701172 -0.07910156 C30.28727858 -0.08456626 34.88724649 -0.10856353 39.48742008 -0.13707352 C43.05743716 -0.1558519 46.62738457 -0.1609136 50.19744682 -0.16243744 C51.89124617 -0.16543262 53.58504523 -0.17335274 55.27879524 -0.18662262 C76.56436065 -0.34142516 94.31851397 3.88209942 110.17553711 19.16113281 C124.12073485 33.90666365 127.67363584 50.44344766 127.46850586 70.08300781 C127.46289657 71.68011065 127.45863279 73.27721872 127.4556427 74.87432861 C127.44429862 79.03689332 127.41492413 83.19913386 127.38153076 87.36157227 C127.34514496 92.37777001 127.3316189 97.39407737 127.31417084 102.41036987 C127.28527823 109.99418158 127.22771955 117.57728486 127.17553711 125.16113281 C105.72553711 125.16113281 84.27553711 125.16113281 62.17553711 125.16113281 C61.98803711 97.03613281 61.98803711 97.03613281 61.96777344 88.18408203 C61.94132262 85.86130509 61.9130444 83.53854793 61.88256836 81.21582031 C61.8865564 80.01578369 61.89054443 78.81574707 61.89465332 77.5793457 C61.9140968 70.56398967 61.9140968 70.56398967 58.88134766 64.47021484 C55.31752028 61.42891923 52.74629036 59.91727689 48.03710938 59.88647461 C47.23269913 59.8769426 46.42828888 59.86741058 45.59950256 59.85758972 C44.73900803 59.85850113 43.87851349 59.85941254 42.99194336 59.86035156 C42.09942368 59.85606644 41.20690399 59.85178131 40.28733826 59.84736633 C38.40201668 59.84163018 36.51667296 59.84111751 34.63134766 59.84545898 C31.75181194 59.8486177 28.87330514 59.82515549 25.99389648 59.79980469 C24.1599134 59.79753145 22.32592756 59.79682831 20.49194336 59.79785156 C19.63347305 59.78864182 18.77500275 59.77943207 17.89051819 59.76994324 C13.06892421 59.80713256 10.20245457 60.24887304 6.17553711 63.16113281 C5.51553711 63.16113281 4.85553711 63.16113281 4.17553711 63.16113281 C2.27758727 67.18700917 1.9091646 70.43919952 1.86914062 74.87231445 C1.85665535 75.85399094 1.85665535 75.85399094 1.84391785 76.85549927 C1.81990441 79.01082395 1.81105342 81.16584492 1.80444336 83.32128906 C1.79546536 84.83239322 1.78634331 86.34349653 1.77708435 87.854599 C1.76061167 91.02279816 1.7528983 94.19089195 1.75 97.35913086 C1.74463999 101.38824299 1.70705312 105.41634116 1.66125584 109.4451685 C1.63126832 112.56906084 1.62427168 115.69271638 1.62327385 118.81674004 C1.61910876 120.30010015 1.60682642 121.78346345 1.5857563 123.26667976 C1.44091747 134.35133402 2.64492043 144.55965826 10.44116211 153.05566406 C14.28201746 156.48322349 18.52886696 159.19443656 22.92553711 161.84863281 C24.62229544 162.89657718 26.31890598 163.94476088 28.01538086 164.99316406 C28.87502441 165.51990723 29.73466797 166.04665039 30.62036133 166.58935547 C34.59852374 169.03646129 38.54287705 171.53629541 42.48803711 174.03613281 C44.05823283 175.02980695 45.62854752 176.02329312 47.19897461 177.01660156 C48.40118652 177.777229 48.40118652 177.777229 49.62768555 178.55322266 C52.36145504 180.27846277 55.10046887 181.99520031 57.83959961 183.71191406 C67.58909572 189.84094475 77.16999872 195.96486422 86.17553711 203.16113281 C87.09077148 203.87398437 88.00600586 204.58683594 88.94897461 205.32128906 C108.80326165 221.08792877 123.67088694 240.50117237 127.17553711 266.16113281 C127.32843626 269.59868035 127.33266404 273.03355693 127.33666992 276.47412109 C127.34163483 277.49935379 127.34659973 278.52458649 127.35171509 279.58088684 C127.36628965 282.96441324 127.37313163 286.34789271 127.37866211 289.73144531 C127.38441835 292.09308879 127.39017602 294.45473226 127.39593506 296.81637573 C127.40643231 301.76755999 127.41228303 306.71872807 127.41577148 311.66992188 C127.4212471 317.99111807 127.44526084 324.3120979 127.47374344 330.63322639 C127.49243827 335.51307789 127.49757911 340.39287803 127.49910736 345.2727623 C127.50212002 347.60178686 127.51010126 349.93081081 127.52329254 352.25979996 C127.63373513 373.26158818 125.87843392 391.12862738 110.40209961 406.99316406 C109.66733398 407.70859375 108.93256836 408.42402344 108.17553711 409.16113281 C107.58514648 409.78375 106.99475586 410.40636719 106.38647461 411.04785156 C102.17180698 415.17896851 97.39493992 417.82465847 92.17553711 420.47363281 C91.51094482 420.81152832 90.84635254 421.14942383 90.16162109 421.49755859 C82.65597003 425.14197429 75.59495112 426.46125831 67.31958008 426.45166016 C66.47283218 426.45837738 65.62608429 426.4650946 64.75367737 426.47201538 C61.97496546 426.4908956 59.19649654 426.494915 56.41772461 426.49707031 C54.46729436 426.50350687 52.51686505 426.51023585 50.56643677 426.51724243 C46.48298915 426.52919156 42.39962596 426.53292586 38.31616211 426.53173828 C33.11833351 426.53153563 27.92105491 426.55879337 22.72335625 426.5932827 C18.69438255 426.61567419 14.66553845 426.61957203 10.63650894 426.61851883 C8.72221107 426.6208581 6.8079087 426.62958568 4.89367294 426.64518356 C-15.11695593 426.79293075 -31.38286327 422.97378414 -46.43774414 408.74316406 C-60.50176978 393.52823616 -64.15687443 377.49322145 -64.01977539 357.31347656 C-64.01603907 355.68966344 -64.01319503 354.06584805 -64.01119995 352.44203186 C-64.00361219 348.19566478 -63.98400618 343.94943739 -63.96179199 339.703125 C-63.93760422 334.59351742 -63.92852942 329.48386278 -63.91688538 324.37421417 C-63.89757835 316.63642362 -63.85922219 308.8989388 -63.82446289 301.16113281 C-42.37446289 301.16113281 -20.92446289 301.16113281 1.17553711 301.16113281 C1.55053711 329.84863281 1.55053711 329.84863281 1.65356445 338.88647461 C1.68877284 341.25277838 1.72469436 343.6190717 1.76147461 345.98535156 C1.77283447 347.21209595 1.78419434 348.43884033 1.79589844 349.70275879 C1.81595947 350.87971313 1.83602051 352.05666748 1.85668945 353.26928711 C1.87001312 354.28854782 1.88333679 355.30780853 1.89706421 356.35795593 C2.19548717 359.36195505 2.75530266 361.49776302 4.17553711 364.16113281 C12.01045617 368.2112377 20.66220748 367.61784915 29.27807617 367.55224609 C31.80173432 367.53612516 34.32380185 367.5521708 36.84741211 367.57128906 C38.46981143 367.56930718 40.09220978 367.56546465 41.71459961 367.55957031 C42.45956696 367.56564301 43.2045343 367.5717157 43.97207642 367.57797241 C48.96817008 367.51154083 52.75102261 366.70236147 57.17553711 364.16113281 C60.88471017 359.66232595 61.75887337 356.08637299 61.69311523 350.40258789 C61.70012451 349.64884888 61.70713379 348.89510986 61.71435547 348.11853027 C61.73188777 345.638861 61.7203245 343.16034401 61.70678711 340.68066406 C61.70948482 338.94438968 61.71336956 337.20811677 61.71838379 335.47184753 C61.72427357 331.83451948 61.71573808 328.19758493 61.69702148 324.56030273 C61.67431716 319.92476925 61.68730373 315.29016663 61.71131134 310.65466785 C61.72585643 307.06755228 61.72112228 303.48065244 61.71080017 299.89352989 C61.70815242 298.18610204 61.71133305 296.47865388 61.72071838 294.77124977 C61.77657967 281.74490969 60.78177558 269.92403884 51.17553711 260.16113281 C48.21077931 257.7381729 45.07689254 255.67933476 41.84350586 253.63378906 C40.94232025 253.04704407 40.04113464 252.46029907 39.11264038 251.85577393 C36.20418034 249.96558553 33.28367187 248.09494058 30.36303711 246.22363281 C28.35728625 244.92285593 26.35265066 243.62035775 24.34912109 242.31616211 C20.41042241 239.75273508 16.46855713 237.19431245 12.52416992 234.63964844 C-53.15446094 192.01899411 -53.15446094 192.01899411 -62.82446289 156.16113281 C-63.90325003 150.98285803 -63.98524703 145.97028288 -64.00146484 140.70605469 C-64.00803604 139.77181671 -64.01460724 138.83757874 -64.02137756 137.87503052 C-64.0410323 134.79331366 -64.05275801 131.71164545 -64.06274414 128.62988281 C-64.06681967 127.57166824 -64.0708952 126.51345367 -64.07509422 125.423172 C-64.09592534 119.81792397 -64.11023778 114.21270018 -64.11962891 108.60742188 C-64.13066486 102.84908545 -64.16504106 97.09113845 -64.20480061 91.33293915 C-64.23108516 86.87849259 -64.23933139 82.42413702 -64.24291039 77.96961975 C-64.24774865 75.84877402 -64.25928271 73.72793159 -64.27794838 71.60716248 C-64.4529734 50.39662142 -61.01669562 33.59954591 -45.69555664 17.89550781 C-32.8850078 5.6949851 -17.6048921 0.02845763 0 0 Z " fill="#FFFFFF" transform="translate(1424.824462890625,473.8388671875)"/>
<path d="M0 0 C1.69523239 -0.00202807 3.39046391 -0.00494555 5.08569336 -0.00869751 C8.61548275 -0.01308645 12.14504231 -0.00680181 15.67480469 0.00732422 C20.15946254 0.02441405 24.64358143 0.01455425 29.1282196 -0.00339317 C32.62190686 -0.01432466 36.11547002 -0.01074218 39.60916138 -0.0030098 C41.26107856 -0.00103354 42.91300767 -0.00337449 44.56491089 -0.01044846 C63.3341537 -0.07322013 80.38536232 2.80596045 95.0625 15.3984375 C95.87976563 16.01847656 96.69703125 16.63851563 97.5390625 17.27734375 C108.69626507 26.65561154 115.15356737 41.17067821 117.0625 55.3984375 C117.32541642 60.829893 117.29651135 66.25197138 117.2578125 71.6875 C117.25407474 73.24262305 117.25123138 74.79774849 117.24923706 76.35287476 C117.24166064 80.41345917 117.22206484 84.47389677 117.1998291 88.53442383 C117.17561006 93.42379219 117.16656111 98.31321008 117.15492249 103.20262146 C117.13563597 110.6013284 117.09727207 117.99971425 117.0625 125.3984375 C95.6125 125.3984375 74.1625 125.3984375 52.0625 125.3984375 C51.8125 97.7734375 51.8125 97.7734375 51.76464844 89.07958984 C51.73527567 86.79783106 51.70444934 84.51609032 51.671875 82.234375 C51.67018311 80.46670776 51.67018311 80.46670776 51.66845703 78.66333008 C51.57117254 70.26915301 51.57117254 70.26915301 47.0625 63.3984375 C42.16574271 60.02442239 37.71040803 59.94435291 31.97265625 59.96484375 C31.10990585 59.9596019 30.24715546 59.95436005 29.35826111 59.94895935 C27.54036532 59.942559 25.722428 59.94385033 23.90454102 59.95239258 C21.13677575 59.9609013 18.37107731 59.93211687 15.60351562 59.90039062 C13.83072978 59.89877825 12.05794031 59.89935685 10.28515625 59.90234375 C9.4651564 59.89110977 8.64515656 59.87987579 7.80030823 59.86830139 C2.09597761 59.93682442 -1.37684247 60.87066529 -5.9375 64.3984375 C-9.41772253 70.4956422 -9.36125124 76.06848734 -9.31845093 82.97485352 C-9.3231309 84.1356244 -9.32781087 85.29639528 -9.33263266 86.49234104 C-9.34250585 89.70117524 -9.33898292 92.90966712 -9.32967401 96.1184926 C-9.32287443 99.58413008 -9.33336923 103.04972198 -9.34161377 106.51535034 C-9.35494364 113.29932759 -9.35207671 120.08320518 -9.34337585 126.86718631 C-9.33659677 132.38136534 -9.33568355 137.89551648 -9.3389473 143.40969849 C-9.33963684 144.58754814 -9.33963684 144.58754814 -9.34034032 145.78919274 C-9.34129951 147.38444989 -9.34227215 148.97970703 -9.3432581 150.57496417 C-9.3518098 165.52868565 -9.34198131 180.48235193 -9.325857 195.43606436 C-9.31245401 208.26306795 -9.31478217 221.08999007 -9.32861328 233.91699219 C-9.34467297 248.81772547 -9.35098585 263.71841039 -9.34177649 278.61915112 C-9.34082086 280.20849291 -9.33987774 281.79783471 -9.3389473 283.38717651 C-9.33848447 284.16913393 -9.33802164 284.95109135 -9.33754479 285.75674444 C-9.33495607 291.26338873 -9.33932336 296.77000231 -9.34638596 302.27664185 C-9.35480548 308.98871397 -9.35251134 315.70068086 -9.33654372 322.41274095 C-9.32866704 325.83641618 -9.32555899 329.25991605 -9.33549118 332.68358994 C-9.34367639 336.39657594 -9.33342074 340.10906709 -9.31845093 343.82202148 C-9.32514309 344.90188607 -9.33183526 345.98175066 -9.33873022 347.09433842 C-9.29268219 352.97394656 -8.81699405 357.22675325 -5.9375 362.3984375 C-0.63840232 367.56166088 3.99421176 367.55580901 11.1171875 367.56640625 C11.89635529 367.56973465 12.67552307 367.57306305 13.478302 367.57649231 C15.1240378 367.58154626 16.7697838 367.58390111 18.41552734 367.58374023 C20.92172298 367.58592375 23.42747609 367.60408725 25.93359375 367.62304688 C27.53645684 367.62598179 29.139322 367.62796593 30.7421875 367.62890625 C31.85809769 367.63968452 31.85809769 367.63968452 32.99655151 367.65068054 C39.02214692 367.62447335 43.31812934 366.94898919 47.875 362.8984375 C50.99622725 359.33132064 51.1960538 357.59366246 51.26782227 352.93896484 C51.28800415 351.78195068 51.30818604 350.62493652 51.32897949 349.43286133 C51.34545532 348.21236084 51.36193115 346.99186035 51.37890625 345.734375 C51.39755737 344.61587158 51.4162085 343.49736816 51.4354248 342.3449707 C51.50388103 338.15454233 51.56392835 333.96398 51.625 329.7734375 C51.769375 320.4096875 51.91375 311.0459375 52.0625 301.3984375 C73.5125 301.3984375 94.9625 301.3984375 117.0625 301.3984375 C117.22293524 318.22631128 117.22293524 318.22631128 117.2578125 325.5 C117.28155693 330.42823912 117.30938412 335.35617598 117.36425781 340.28417969 C117.40830207 344.26537342 117.43175787 348.24624223 117.44200897 352.22766113 C117.44929697 353.73284 117.46352195 355.23800478 117.48542023 356.74304199 C117.74763017 375.5433695 113.72507278 393.1144739 100.44091797 407.1652832 C89.230913 418.48990606 74.86223817 426.50244761 58.63806152 426.69171143 C57.86595337 426.69080505 57.09384521 426.68989868 56.29833984 426.68896484 C55.46134552 426.69568207 54.6243512 426.70239929 53.76199341 426.70932007 C51.01574638 426.72819765 48.26974524 426.73221956 45.5234375 426.734375 C43.59542749 426.74081177 41.66741843 426.74754076 39.7394104 426.75454712 C35.70304097 426.7664956 31.66675695 426.77023062 27.63037109 426.76904297 C22.49307396 426.76884032 17.35633337 426.79609733 12.21916771 426.83058739 C8.23651688 426.85298161 4.25399713 426.85687664 0.27128983 426.85582352 C-1.62067958 426.85816241 -3.51265356 426.86688777 -5.40456009 426.88248825 C-25.50738144 427.0326924 -41.59412555 423.05222905 -56.6875 408.78125 C-69.28748801 395.4375127 -74.41455624 379.9786994 -74.32518005 361.90751648 C-74.33056559 360.58900832 -74.33595113 359.27050015 -74.34149987 357.91203719 C-74.35586706 354.28113814 -74.35173734 350.65046775 -74.34433305 347.01955664 C-74.33958185 343.09236221 -74.35212848 339.16521587 -74.36235046 335.23803711 C-74.37950624 327.55523588 -74.3803851 319.87251656 -74.37513756 312.18970116 C-74.37108827 305.94150533 -74.37254841 299.69333362 -74.37788582 293.44513893 C-74.37863424 292.55422976 -74.37938266 291.66332059 -74.38015376 290.74541417 C-74.38168532 288.93524028 -74.38322367 287.12506639 -74.38476873 285.31489251 C-74.39848236 268.35656562 -74.3930643 251.39828491 -74.38158352 234.43995909 C-74.37165443 218.94657318 -74.38458823 203.45330675 -74.40851771 187.95993926 C-74.43293711 172.02859618 -74.44250948 156.09730867 -74.43586498 140.16594726 C-74.4323788 131.23083733 -74.43456492 122.29581922 -74.45211601 113.3607235 C-74.46687365 105.7537522 -74.46742718 98.14693739 -74.4500451 90.53996905 C-74.44156154 86.66372517 -74.43932017 82.78776041 -74.45469666 78.91153145 C-74.4686337 75.35392642 -74.46366675 71.79683724 -74.44445742 68.23926137 C-74.43897399 66.36223572 -74.45289348 64.48518321 -74.46781152 62.60820884 C-74.32052213 45.40602796 -68.04257912 31.06076823 -56.2421875 18.64453125 C-40.23728098 3.04652913 -21.46942291 -0.09193873 0 0 Z " fill="#FFFFFF" transform="translate(461.9375,473.6015625)"/>
<path d="M0 0 C51.15 0 102.3 0 155 0 C155 19.47 155 38.94 155 59 C125.3 59 95.6 59 65 59 C65 98.27 65 137.54 65 178 C89.09 178 113.18 178 138 178 C138 197.47 138 216.94 138 237 C113.91 237 89.82 237 65 237 C65 280.23 65 323.46 65 368 C94.7 368 124.4 368 155 368 C155 387.14 155 406.28 155 426 C103.85 426 52.7 426 0 426 C0 285.42 0 144.84 0 0 Z " fill="#FFFFFF" transform="translate(928,474)"/>
<path d="M0 0 C1.99999599 -0.00202643 3.99999125 -0.00494258 5.99998474 -0.00869751 C10.17983068 -0.01310124 14.35948332 -0.0067578 18.53930664 0.00732422 C23.84183362 0.0243367 29.14390222 0.01461277 34.44641209 -0.00339317 C38.57595631 -0.01435096 42.705396 -0.01072909 46.83494377 -0.0030098 C48.78695673 -0.00103665 50.73897982 -0.00336298 52.69098091 -0.01044846 C75.24458121 -0.07432175 99.32128306 1.40087372 117.12109375 16.7734375 C125.63907774 26.71108549 127.83863697 36.74542195 127.71166992 49.64111328 C127.712108 50.82275558 127.71254608 52.00439789 127.71299744 53.22184753 C127.71092098 57.09598788 127.68764333 60.969686 127.6640625 64.84375 C127.65678644 67.54230507 127.65404657 70.24085971 127.65119934 72.93942261 C127.64191262 79.29633081 127.61734513 85.65308237 127.58715087 92.00992191 C127.55350112 99.25304096 127.5370944 106.4961679 127.52206457 113.73934579 C127.49079209 128.62579664 127.43809807 143.51210133 127.37109375 158.3984375 C110.89703536 158.49240888 94.42306561 158.56267268 77.94880295 158.60568619 C70.29731976 158.62620026 62.64600432 158.65410363 54.99462891 158.70019531 C48.31578959 158.74040884 41.63707191 158.76595104 34.95811486 158.77479148 C31.43057941 158.77994874 27.90339152 158.79182803 24.37596893 158.82135773 C1.36882008 159.00609108 -24.08143292 159.10652655 -42.25390625 142.6484375 C-51.2194712 132.62926958 -52.83834411 122.17747982 -52.94140625 109.3359375 C-52.98491211 107.56959961 -52.98491211 107.56959961 -53.02929688 105.76757812 C-53.1105737 94.47009989 -50.5536187 84.72999903 -42.62890625 76.3984375 C-18.98822426 54.28147134 17.49454672 58.09205972 47.37109375 58.3984375 C47.29012151 54.81418549 47.17728677 51.23162311 47.05859375 47.6484375 C47.03603516 46.63265625 47.01347656 45.616875 46.99023438 44.5703125 C46.95478516 43.590625 46.91933594 42.6109375 46.8828125 41.6015625 C46.85662842 40.70083008 46.83044434 39.80009766 46.8034668 38.87207031 C46.29082978 35.93924237 45.41766384 34.53946467 43.37109375 32.3984375 C40.42593723 31.48499854 40.42593723 31.48499854 37.18359375 31.1484375 C35.26546875 30.9009375 33.34734375 30.6534375 31.37109375 30.3984375 C31.37109375 37.9884375 31.37109375 45.5784375 31.37109375 53.3984375 C29.14101563 53.41302002 26.9109375 53.42760254 24.61328125 53.44262695 C17.22512776 53.4930816 9.83718262 53.55969563 2.44923401 53.63415241 C-2.02780336 53.6787806 -6.50475132 53.71805315 -10.98193359 53.74487305 C-15.30688841 53.77098166 -19.63149774 53.8114369 -23.95623779 53.86162376 C-25.60190517 53.87824155 -27.24763223 53.8897874 -28.89337158 53.89605141 C-31.20792413 53.90574836 -33.52160291 53.9338721 -35.8359375 53.96606445 C-37.15053955 53.97716751 -38.4651416 53.98827057 -39.81958008 53.99971008 C-46.29401554 54.67739816 -51.96252341 56.73205466 -56.62890625 61.3984375 C-59.8174661 66.49327816 -60.07134945 70.61351085 -60.0612793 76.43310547 C-60.07147095 77.32155655 -60.0816626 78.21000763 -60.09216309 79.12538147 C-60.12223512 82.04719395 -60.13155022 84.96867825 -60.140625 87.890625 C-60.15747597 89.92230311 -60.17562677 91.95397081 -60.19502258 93.98562622 C-60.24248321 99.32190705 -60.27231815 104.6581457 -60.29846191 109.99456787 C-60.33353498 116.40327548 -60.3905366 122.81182116 -60.44385529 129.22039795 C-60.52232302 138.94639052 -60.57296383 148.67217179 -60.62890625 158.3984375 C-87.68890625 158.3984375 -114.74890625 158.3984375 -142.62890625 158.3984375 C-142.62890625 106.9184375 -142.62890625 55.4384375 -142.62890625 2.3984375 C-115.89890625 2.3984375 -89.16890625 2.3984375 -61.62890625 2.3984375 C-61.13390625 14.2784375 -61.13390625 14.2784375 -60.62890625 26.3984375 C-58.64890625 23.4284375 -56.66890625 20.4584375 -54.62890625 17.3984375 C-40.59397113 1.22036517 -19.85515688 -0.07146596 0 0 Z M32.37109375 93.3984375 C30.1996257 97.7413736 31.14142519 103.5656731 31.12109375 108.3359375 C31.10046875 109.54185547 31.07984375 110.74777344 31.05859375 111.99023438 C31.0534375 113.14458984 31.04828125 114.29894531 31.04296875 115.48828125 C31.03362305 116.54909912 31.02427734 117.60991699 31.01464844 118.70288086 C31.14335088 121.7790022 31.14335088 121.7790022 34.37109375 124.3984375 C38.66109375 124.7284375 42.95109375 125.0584375 47.37109375 125.3984375 C47.37109375 113.8484375 47.37109375 102.2984375 47.37109375 90.3984375 C38.62789108 89.77608025 38.62789108 89.77608025 32.37109375 93.3984375 Z " fill="#EE3B33" transform="translate(931.62890625,240.6015625)"/>
<path d="M0 0 C61.05 0 122.1 0 185 0 C185 19.47 185 38.94 185 59 C165.2 59 145.4 59 125 59 C125 180.11 125 301.22 125 426 C103.55 426 82.1 426 60 426 C60 304.89 60 183.78 60 59 C40.2 59 20.4 59 0 59 C0 39.53 0 20.06 0 0 Z " fill="#FFFFFF" transform="translate(1133,474)"/>
<path d="M0 0 C61.05 0 122.1 0 185 0 C185 19.47 185 38.94 185 59 C165.2 59 145.4 59 125 59 C125 180.11 125 301.22 125 426 C103.55 426 82.1 426 60 426 C60 304.89 60 183.78 60 59 C40.2 59 20.4 59 0 59 C0 39.53 0 20.06 0 0 Z " fill="#FFFFFF" transform="translate(0,474)"/>
<path d="M0 0 C8.49412162 7.83750366 11.0827284 15.84493403 13.5625 27.00390625 C13.5625 35.58390625 13.5625 44.16390625 13.5625 53.00390625 C-14.8175 53.00390625 -43.1975 53.00390625 -72.4375 53.00390625 C-72.7675 45.08390625 -73.0975 37.16390625 -73.4375 29.00390625 C-75.76001426 24.118951 -75.76001426 24.118951 -78.4375 23.00390625 C-80.51096793 22.73047732 -80.51096793 22.73047732 -82.8125 22.69140625 C-83.58335937 22.65402344 -84.35421875 22.61664063 -85.1484375 22.578125 C-88.45650908 23.19344889 -89.50510505 24.26129189 -91.4375 27.00390625 C-91.840358 29.79429033 -91.99864386 32.10195576 -91.9375 34.87890625 C-91.95296875 35.57371094 -91.9684375 36.26851562 -91.984375 36.984375 C-91.94542117 42.15549633 -90.88578601 45.17368983 -87.4375 49.00390625 C-81.08167474 53.67807355 -72.84375069 54.74566302 -65.3125 56.37890625 C-62.61832696 56.98317794 -59.92629493 57.59671593 -57.234375 58.2109375 C-56.56725494 58.36241745 -55.90013489 58.5138974 -55.21279907 58.66996765 C-0.56598163 71.13659529 -0.56598163 71.13659529 11.9375 91.00390625 C20.31175247 106.05032735 19.05907807 127.51478018 15.5625 144.00390625 C12.0288542 156.3568193 4.48711015 165.01973418 -6.5234375 171.48046875 C-44.87281538 191.52907113 -110.66745379 189.17188089 -151.43261719 177.42919922 C-164.75306054 173.19280357 -177.56864537 165.81137914 -184.3125 153.12890625 C-185.05618814 151.43566473 -185.76568035 149.72692606 -186.4375 148.00390625 C-186.75589844 147.24335938 -187.07429688 146.4828125 -187.40234375 145.69921875 C-190.93844839 135.49829014 -189.4375 126.23253009 -189.4375 115.00390625 C-159.4075 115.00390625 -129.3775 115.00390625 -98.4375 115.00390625 C-97.9425 124.40890625 -97.9425 124.40890625 -97.4375 134.00390625 C-96.28198274 140.90866384 -96.28198274 140.90866384 -92.4375 143.00390625 C-90.29120543 143.35708586 -90.29120543 143.35708586 -88 143.31640625 C-86.85724609 143.34154297 -86.85724609 143.34154297 -85.69140625 143.3671875 C-82.6169003 142.87164321 -81.47414953 142.41416934 -79.4375 140.00390625 C-78.83155398 136.87207249 -78.88019501 133.80933342 -78.9375 130.62890625 C-78.92203125 129.778125 -78.9065625 128.92734375 -78.890625 128.05078125 C-78.89835937 126.80941406 -78.89835937 126.80941406 -78.90625 125.54296875 C-78.91076172 124.79225098 -78.91527344 124.0415332 -78.91992188 123.26806641 C-79.66503456 120.00854989 -81.09508696 118.36423778 -83.4375 116.00390625 C-86.15150018 114.66701793 -86.15150018 114.66701793 -89.24609375 113.90234375 C-90.40093262 113.58104492 -91.55577148 113.25974609 -92.74560547 112.92871094 C-98.31715626 111.53305994 -103.90748041 110.25658122 -109.52383423 109.05447388 C-169.2248331 96.19785386 -169.2248331 96.19785386 -183.68408203 74.08251953 C-189.1824948 64.42852552 -190.07577059 54.34749934 -189.9375 43.44140625 C-189.95296875 42.21744141 -189.9684375 40.99347656 -189.984375 39.73242188 C-189.92758849 26.3946899 -186.32875597 16.00656921 -177.4375 6.00390625 C-140.90600018 -30.02021163 -38.74900375 -31.73195659 0 0 Z " fill="#EE3B33" transform="translate(443.4375,18.99609375)"/>
<path d="M0 0 C26.73 0 53.46 0 81 0 C81 65.01 81 130.02 81 197 C60.725625 197.061875 40.45125 197.12375 19.5625 197.1875 C10.00583374 197.22846802 10.00583374 197.22846802 0.25610352 197.27026367 C-7.60168457 197.28381348 -7.60168457 197.28381348 -11.29530334 197.28633118 C-13.84207233 197.29089895 -16.38883536 197.30136802 -18.93556213 197.31672668 C-66.2622743 197.58755323 -66.2622743 197.58755323 -84.19140625 180.96875 C-92.41267481 172.36896999 -95.14282328 162.94809294 -95.16113281 151.24731445 C-95.16609772 150.4823616 -95.17106262 149.71740875 -95.17617798 148.92927551 C-95.19074017 146.40726813 -95.19759257 143.88532371 -95.203125 141.36328125 C-95.20888246 139.60076396 -95.21464011 137.83824666 -95.22039795 136.07572937 C-95.23089183 132.38129384 -95.23674467 128.68687997 -95.24023438 124.99243164 C-95.24570791 120.27961639 -95.26971831 115.56709166 -95.29820633 110.85436726 C-95.3169175 107.21245005 -95.32204286 103.57060156 -95.32357025 99.92864037 C-95.32657949 98.19246016 -95.33454897 96.45628067 -95.34775543 94.72014809 C-95.44901116 80.38269969 -94.21167161 69.16874289 -84.32421875 58.12890625 C-66.60230608 41.09006516 -40.35854616 40.82050114 -17.375 40.9375 C-8.774375 40.9684375 -8.774375 40.9684375 0 41 C0 27.47 0 13.94 0 0 Z M-12.59364319 75.49839783 C-14.55009206 78.97849385 -14.55135874 82.13798099 -14.50170898 86.02563477 C-14.50711197 86.83094635 -14.51251495 87.63625793 -14.51808167 88.4659729 C-14.53057754 91.12482582 -14.51407425 93.78259784 -14.49609375 96.44140625 C-14.4962487 98.28938351 -14.49773707 100.13736111 -14.50050354 101.9853363 C-14.50188786 105.85650006 -14.48932276 109.72729346 -14.46655273 113.59838867 C-14.4381481 118.56421074 -14.44091034 123.5294183 -14.45364285 128.49528599 C-14.4605919 132.31024947 -14.45281995 136.1250705 -14.44038582 139.94001579 C-14.43586518 141.77127474 -14.43553985 143.60254894 -14.43945122 145.43380928 C-14.44235639 147.99077942 -14.42589106 150.54689724 -14.40405273 153.10375977 C-14.40855438 153.86280106 -14.41305603 154.62184235 -14.41769409 155.40388489 C-14.37501983 159.40781563 -14.37501983 159.40781563 -12.6622467 162.93101501 C-8.31002915 165.72991075 -5.61474766 165 0 165 C0 134.97 0 104.94 0 74 C-9.05608167 73.16626723 -9.05608167 73.16626723 -12.59364319 75.49839783 Z " fill="#EE3B33" transform="translate(1472,202)"/>
<path d="M0 0 C21.45 0 42.9 0 65 0 C65 140.58 65 281.16 65 426 C43.55 426 22.1 426 0 426 C0 285.42 0 144.84 0 0 Z " fill="#FFFFFF" transform="translate(243,474)"/>
<path d="M0 0 C20.934375 -0.061875 41.86875 -0.12375 63.4375 -0.1875 C73.30740845 -0.22846802 73.30740845 -0.22846802 83.37670898 -0.27026367 C91.48840332 -0.28381348 91.48840332 -0.28381348 95.30067444 -0.28633118 C97.93094068 -0.29090099 100.56075539 -0.30021653 103.19093323 -0.31672668 C150.60518471 -0.60091226 150.60518471 -0.60091226 166 14 C174.36463093 23.00656773 177.14156006 33.58824186 177.16113281 45.65087891 C177.16609772 46.39325806 177.17106262 47.13563721 177.17617798 47.9005127 C177.19071216 50.34253896 177.19758823 52.78450019 177.203125 55.2265625 C177.20736607 56.48665194 177.20736607 56.48665194 177.21169281 57.77219772 C177.22665287 62.22101909 177.23590143 66.66980832 177.24023438 71.11865234 C177.24570306 75.68439473 177.26970623 80.2498365 177.29820633 84.815485 C177.31695445 88.35196758 177.32204482 91.88837964 177.32357025 95.42490768 C177.32657175 97.10640474 177.33451421 98.78790131 177.34775543 100.46934891 C177.44650465 113.97708594 176.89666429 126.07945 168 137 C167.49726562 137.62648437 166.99453125 138.25296875 166.4765625 138.8984375 C154.06864719 152.7589868 132.89236251 154.87404414 115.38574219 155.86816406 C103.93327951 156.31410651 92.45711369 156.13408846 81 156 C81 164.58 81 173.16 81 182 C54.27 182 27.54 182 0 182 C0 121.94 0 61.88 0 0 Z M81 32 C81 62.03 81 92.06 81 123 C90.17706376 123.87025643 90.17706376 123.87025643 94.0625 121.125 C97.42238736 117.43996226 97.16479177 114.37034246 97.19287109 109.6003418 C97.20104858 108.83754913 97.20922607 108.07475647 97.21765137 107.28884888 C97.24250831 104.75898018 97.25902201 102.22916761 97.2734375 99.69921875 C97.27876118 98.83572123 97.28408485 97.9722237 97.28956985 97.08255959 C97.31630265 92.51216138 97.33567718 87.9417905 97.35009766 83.37133789 C97.36674673 78.64990314 97.41152584 73.92916626 97.4624691 69.20799541 C97.49612032 65.57828466 97.50767271 61.94874 97.51332474 58.31888771 C97.52004305 56.57853677 97.53528028 54.83819698 97.55921555 53.09799767 C97.5908263 50.66070009 97.59091087 48.22529043 97.58349609 45.7878418 C97.59990143 45.07025192 97.61630676 44.35266205 97.63320923 43.61332703 C97.58458185 39.70429809 97.11052908 38.13403185 94.58853149 35.07575989 C89.35610081 30.8798404 89.41902512 32 81 32 Z " fill="#EE3B33" transform="translate(477,40)"/>
<path d="M0 0 C26.73 0 53.46 0 81 0 C81.04898438 8.41113281 81.09796875 16.82226562 81.1484375 25.48828125 C81.18830556 31.48266722 81.22941757 37.47703449 81.27233124 43.47139835 C81.32780097 51.24287121 81.3803044 59.01432771 81.421875 66.78588867 C81.45830257 73.59403113 81.50500475 80.40204058 81.55806351 87.21007347 C81.57664219 89.81165538 81.59173719 92.4132645 81.60334396 95.01488686 C81.62014689 98.64978741 81.64916777 102.28439532 81.68115234 105.91918945 C81.68331253 107.00244003 81.68547272 108.08569061 81.68769836 109.20176697 C81.69886185 110.19034698 81.71002533 111.178927 81.7215271 112.19746399 C81.72705786 113.05749684 81.73258862 113.9175297 81.73828697 114.80362415 C81.86660986 117.28996685 81.86660986 117.28996685 84 120 C87.96 120.33 91.92 120.66 96 121 C96 81.07 96 41.14 96 0 C122.73 0 149.46 0 177 0 C177 51.48 177 102.96 177 156 C146.0625 156.0928125 146.0625 156.0928125 114.5 156.1875 C104.77305664 156.22846802 104.77305664 156.22846802 94.84960938 156.27026367 C86.86035156 156.28381348 86.86035156 156.28381348 83.10656738 156.28633118 C80.5145884 156.2909034 77.9230663 156.30022648 75.33117676 156.31672668 C28.59074833 156.60085954 28.59074833 156.60085954 11.03125 140.15625 C1.03095553 129.47796946 -0.32578956 116.38113006 -0.22705078 102.28637695 C-0.22734283 101.17286362 -0.22763489 100.05935028 -0.22793579 98.91209412 C-0.22655436 95.2707409 -0.21104939 91.62959824 -0.1953125 87.98828125 C-0.19157815 85.44809582 -0.18873317 82.90790895 -0.18673706 80.36772156 C-0.1799089 74.38983115 -0.16418327 68.41202964 -0.14403808 62.43417472 C-0.11542707 53.75338062 -0.10506185 45.07256074 -0.09242249 36.39173126 C-0.0730876 24.26109277 -0.03474171 12.13064819 0 0 Z " fill="#EE3B33" transform="translate(295,243)"/>
<path d="M0 0 C11.8208937 11.13760505 15.33520165 21.1437655 16.21350098 37.34378052 C16.2882283 40.8063243 16.30487613 44.26324861 16.29296875 47.7265625 C16.2948822 48.98548813 16.29679565 50.24441376 16.29876709 51.54148865 C16.3004592 54.84902162 16.29253155 58.15635992 16.28125 61.46386719 C16.27734316 63.47296174 16.28124484 65.48188179 16.28808594 67.4909668 C16.30054055 71.40291215 16.29891909 75.31460594 16.29296875 79.2265625 C16.29701721 80.40610001 16.30106567 81.58563751 16.30523682 82.80091858 C16.21394257 99.23789338 13.69760512 112.03453652 2.6484375 124.4609375 C-10.10626108 136.81601106 -30.07820892 140.90644527 -46.97265625 142.91015625 C-48.35130859 143.07837891 -48.35130859 143.07837891 -49.7578125 143.25 C-81.2748894 146.34656341 -120.25380439 146.04215616 -146.96875 126.74609375 C-157.16774182 118.16863555 -160.96271731 108.88385223 -162.97265625 95.91015625 C-163.3489561 90.75591698 -163.37372417 85.62180044 -163.3359375 80.45703125 C-163.33541674 79.02126059 -163.33594274 77.58548921 -163.33744812 76.14971924 C-163.33735931 73.16806127 -163.32711405 70.1866788 -163.30883789 67.20507812 C-163.28607082 63.41063402 -163.28563155 59.61658775 -163.29235554 55.82209396 C-163.29571727 52.86729481 -163.28902557 49.91258411 -163.2792263 46.95780182 C-163.27541814 45.55936395 -163.27420755 44.16091619 -163.27581215 42.76247406 C-163.27870063 27.725138 -161.46073235 14.38589871 -150.97265625 2.91015625 C-120.25279178 -26.44161709 -32.76231622 -27.75950443 0 0 Z M-80.97265625 20.91015625 C-81.36728478 23.77005131 -81.52013351 26.24485721 -81.49023438 29.10351562 C-81.49724365 29.92672806 -81.50425293 30.74994049 -81.51147461 31.59809875 C-81.52906816 34.31704521 -81.51742736 37.03494936 -81.50390625 39.75390625 C-81.50660078 41.64432983 -81.51048288 43.53475206 -81.51550293 45.4251709 C-81.52139981 49.38628338 -81.51282892 53.34703495 -81.49414062 57.30810547 C-81.47135095 62.38603186 -81.48447302 67.46311263 -81.50843048 72.541008 C-81.52288333 76.44438043 -81.51828483 80.34755232 -81.50791931 84.25093079 C-81.50525061 86.12323608 -81.50852684 87.99555958 -81.51783752 89.86784363 C-81.52799475 92.48465211 -81.51251443 95.10009048 -81.49023438 97.71679688 C-81.4983313 98.49094437 -81.50642822 99.26509186 -81.51477051 100.06269836 C-81.45925341 103.58156558 -81.26194441 105.53340496 -79.08874512 108.36364746 C-76.54536161 110.22243752 -75.13244787 110.83492312 -71.97265625 110.91015625 C-67.67466327 109.33058543 -67.67466327 109.33058543 -64.97265625 105.91015625 C-64.85871632 103.24650169 -64.80482406 100.60838584 -64.7956543 97.94384766 C-64.7890831 97.12092728 -64.7825119 96.2980069 -64.77574158 95.45014954 C-64.75599347 92.72067174 -64.74434356 89.99124896 -64.734375 87.26171875 C-64.73029947 86.3307777 -64.72622395 85.39983665 -64.72202492 84.44068527 C-64.70115921 79.51482107 -64.68685882 74.58898479 -64.67749023 69.66308594 C-64.66641568 64.56950362 -64.63200524 59.47635696 -64.59231853 54.38292885 C-64.56620523 50.47103041 -64.55780319 46.55923669 -64.55420876 42.64725876 C-64.54933026 40.76934232 -64.53768052 38.89143095 -64.51917076 37.0135994 C-64.49488797 34.38713022 -64.49572401 31.76180038 -64.50268555 29.13525391 C-64.48987549 28.35796432 -64.47706543 27.58067474 -64.46386719 26.77983093 C-64.49823872 23.22670153 -64.68240685 21.28827002 -66.87702942 18.42929077 C-69.14718033 16.78364253 -70.20197827 16.36686441 -72.97265625 16.41015625 C-73.96265625 16.3946875 -73.96265625 16.3946875 -74.97265625 16.37890625 C-77.99234432 17.18101089 -79.06742538 18.43402676 -80.97265625 20.91015625 Z " fill="#EE3B33" transform="translate(832.97265625,54.08984375)"/>
<path d="M0 0 C2.90687971 0.00315043 5.81272823 -0.02035682 8.71948242 -0.0456543 C33.70765021 -0.13162064 61.3849753 2.83489972 80.6159668 20.50317383 C98.40666933 39.45624531 92.7409668 65.97888559 92.7409668 90.31567383 C60.7309668 90.31567383 28.7209668 90.31567383 -4.2590332 90.31567383 C-6.22728401 109.53247449 -6.22728401 109.53247449 -0.2590332 125.31567383 C1.68798713 125.75041016 1.68798713 125.75041016 3.7409668 125.62817383 C4.4215918 125.62430664 5.1022168 125.62043945 5.8034668 125.61645508 C8.06287788 125.40475676 8.06287788 125.40475676 10.7409668 123.31567383 C11.0709668 114.73567383 11.4009668 106.15567383 11.7409668 97.31567383 C38.4709668 97.31567383 65.2009668 97.31567383 92.7409668 97.31567383 C92.7409668 114.58842521 92.71562729 127.90190185 80.8659668 141.06567383 C61.65771427 158.88342996 31.69586477 160.88159895 6.88378906 160.70678711 C4.17486443 160.69065237 1.46742619 160.70678955 -1.24145508 160.72583008 C-25.9108615 160.75602706 -54.44407444 157.60595527 -73.06762695 139.72973633 C-83.63178638 128.09221311 -84.73088263 114.75747864 -84.69262695 99.72973633 C-84.69720089 98.13992086 -84.70251001 96.55010735 -84.70851135 94.96029663 C-84.71739485 91.64377767 -84.71507462 88.32750011 -84.70507812 85.01098633 C-84.69360137 80.79617508 -84.71380404 76.58220334 -84.74299526 72.36750221 C-84.76149122 69.08829605 -84.7610383 65.80928607 -84.75535774 62.53004074 C-84.75520612 60.97776488 -84.76111614 59.42547433 -84.77364922 57.87324905 C-84.87481582 43.29240264 -82.51793053 30.72275932 -72.6574707 19.49145508 C-62.57760488 9.61141039 -47.88569229 4.6495676 -34.2590332 2.31567383 C-32.74660034 2.05185913 -32.74660034 2.05185913 -31.20361328 1.78271484 C-20.79246374 0.17423265 -10.51669144 -0.02373177 0 0 Z M-1.9699707 33.19458008 C-5.23808769 37.65059625 -4.8182331 41.25770689 -4.5715332 46.62817383 C-4.54897461 47.55952148 -4.52641602 48.49086914 -4.50317383 49.45043945 C-4.44447881 51.73954509 -4.35480385 54.02781944 -4.2590332 56.31567383 C1.3509668 56.31567383 6.9609668 56.31567383 12.7409668 56.31567383 C12.82212672 53.25263805 12.88154088 50.19176568 12.9284668 47.12817383 C12.95360352 46.26385742 12.97874023 45.39954102 13.00463867 44.5090332 C13.0607503 39.62732161 12.99586863 36.24835183 9.7409668 32.31567383 C5.53731405 30.21384745 1.83387686 30.55819581 -1.9699707 33.19458008 Z " fill="#EE3B33" transform="translate(1271.259033203125,240.684326171875)"/>
<path d="M0 0 C0.72510773 0.00060425 1.45021545 0.0012085 2.19729614 0.00183105 C13.88650501 0.02819612 25.43612981 0.35585235 37 2.1875 C37.7626416 2.30577148 38.5252832 2.42404297 39.31103516 2.54589844 C53.38697826 4.86096253 69.52465322 9.79794176 79 21.1875 C86.7515665 32.69740177 85 39.47612142 85 55.1875 C59.92 55.1875 34.84 55.1875 9 55.1875 C8.67 49.9075 8.34 44.6275 8 39.1875 C7.67 38.1975 7.34 37.2075 7 36.1875 C3.88450128 34.62975064 0.3955612 34.62269378 -3 35.1875 C-4.83150854 36.3157573 -4.83150854 36.3157573 -6 38.1875 C-6.43742971 40.56067178 -6.43742971 40.56067178 -6.3125 43.125 C-6.30863281 43.97964844 -6.30476562 44.83429688 -6.30078125 45.71484375 C-5.97593954 48.38529572 -5.39698877 49.90113189 -4 52.1875 C2.62316013 56.92039905 11.95058612 58.04889364 19.75244141 59.87799072 C71.56442558 72.09656602 71.56442558 72.09656602 83 87.1875 C89.56900615 98.5672653 88.05197845 114.75432147 85.0390625 127.03125 C83.40966735 131.98069091 81.12631259 136.03653472 78 140.1875 C77.31550781 141.12142578 77.31550781 141.12142578 76.6171875 142.07421875 C65.03391907 155.56781679 43.19857711 159.40747538 26.5289917 161.0012207 C18.42396898 161.59821671 10.27919831 161.51923622 2.15698242 161.50317383 C-1.16456208 161.50002177 -4.48520593 161.52352991 -7.80664062 161.54882812 C-30.30023945 161.61597507 -54.95890956 160.57282101 -74 147.1875 C-74.9075 146.61 -75.815 146.0325 -76.75 145.4375 C-84.59916544 137.58833456 -87.14110246 127.92371929 -88 117.1875 C-88 113.8875 -88 110.5875 -88 107.1875 C-61.27 107.1875 -34.54 107.1875 -7 107.1875 C-6.505 116.0975 -6.505 116.0975 -6 125.1875 C-0.99400384 127.69049808 0.65115915 127.23973099 6 126.1875 C7.29060033 123.60629934 7.13272333 121.69330171 7.125 118.8125 C7.12757813 117.85601562 7.13015625 116.89953125 7.1328125 115.9140625 C7.02510968 112.43896506 7.02510968 112.43896506 6 109.1875 C1.66707973 106.82020431 -3.56647235 105.8275108 -8.3125 104.5 C-10.19670753 103.9651711 -12.08081829 103.43000118 -13.96484375 102.89453125 C-17.00443106 102.03353867 -20.04464149 101.17497835 -23.08642578 100.32177734 C-73.06693702 86.27630265 -73.06693702 86.27630265 -82.875 69.75 C-86.65345052 62.78761041 -87.36725646 55.57618347 -87.3125 47.8125 C-87.30686035 46.97614014 -87.3012207 46.13978027 -87.29541016 45.27807617 C-87.07525743 34.07971356 -84.16170789 26.72838991 -76.4765625 18.5703125 C-57.37969127 0.59130691 -24.59533596 -0.03798562 0 0 Z " fill="#EE3B33" transform="translate(571,240.8125)"/>
<path d="M0 0 C2.32269358 0.01074191 4.64461426 0.00000489 6.96728516 -0.01269531 C20.9452199 -0.02702732 35.17481264 0.71650244 48.69775391 4.51074219 C49.48384033 4.72617676 50.26992676 4.94161133 51.07983398 5.16357422 C63.79959576 8.8149432 74.73175945 14.58164629 81.81494141 26.07324219 C86.48224511 36.20382386 84.82275391 43.04922298 84.82275391 55.26074219 C60.40275391 55.26074219 35.98275391 55.26074219 10.82275391 55.26074219 C10.32775391 46.35074219 10.32775391 46.35074219 9.82275391 37.26074219 C8.04168142 35.0713431 8.04168142 35.0713431 5.72900391 34.99511719 C4.93494141 35.00027344 4.14087891 35.00542969 3.32275391 35.01074219 C2.52869141 35.00558594 1.73462891 35.00042969 0.91650391 34.99511719 C-1.39617361 35.0713431 -1.39617361 35.0713431 -3.17724609 37.26074219 C-3.61263716 40.24709281 -3.61263716 40.24709281 -3.61474609 43.63574219 C-3.65470703 44.77785156 -3.69466797 45.91996094 -3.73583984 47.09667969 C-3.43250611 50.31181788 -3.43250611 50.31181788 -1.38427734 52.46777344 C3.36468999 55.12279902 8.31475061 56.26807498 13.57275391 57.57324219 C15.91805997 58.18163897 18.26310561 58.7910404 20.60791016 59.40136719 C21.80432129 59.70880859 23.00073242 60.01625 24.23339844 60.33300781 C54.64981599 68.19468559 54.64981599 68.19468559 67.82275391 74.26074219 C68.84626953 74.73125 69.86978516 75.20175781 70.92431641 75.68652344 C79.25389977 79.85131512 85.05862646 84.94174389 88.22949219 93.89648438 C89.39237362 98.53078224 89.30727165 103.19534512 89.26025391 107.94824219 C89.24889404 109.54454468 89.24889404 109.54454468 89.23730469 111.1730957 C88.96878399 124.00622922 86.08771112 135.22560787 76.60009766 144.41308594 C57.01049178 161.0844304 29.50407685 161.62031439 5.04174805 161.52148438 C1.8936838 161.51077088 -1.25380851 161.52143555 -4.40185547 161.53417969 C-27.63195597 161.55094672 -56.58108262 161.21790341 -74.73974609 144.44824219 C-85.0363258 133.11316625 -84.17724609 122.71677543 -84.17724609 107.26074219 C-57.77724609 107.26074219 -31.37724609 107.26074219 -4.17724609 107.26074219 C-3.68224609 116.17074219 -3.68224609 116.17074219 -3.17724609 125.26074219 C1.82875006 127.76374027 3.47391305 127.31297318 8.82275391 126.26074219 C10.16559039 123.57506922 10.06562909 121.38327366 10.13525391 118.38574219 C10.19132812 116.81179687 10.19132812 116.81179687 10.24853516 115.20605469 C9.71327173 111.50340679 8.62798557 110.65755625 5.82275391 108.26074219 C-1.86471677 104.42413964 -10.68022591 102.71784796 -18.96939087 100.57025146 C-69.1647445 87.47928839 -69.1647445 87.47928839 -80.55224609 69.13574219 C-84.58672378 62.2102484 -84.42133329 56.01689691 -84.48974609 48.13574219 C-84.51875 47.04519531 -84.54775391 45.95464844 -84.57763672 44.83105469 C-84.65182994 35.28866492 -82.68928362 26.99001938 -75.97412109 19.90917969 C-56.08392159 1.66208363 -25.72588391 -0.14066729 0 0 Z " fill="#EE3B33" transform="translate(1208.17724609375,36.7392578125)"/>
<path d="M0 0 C29.37 0 58.74 0 89 0 C89 72.93 89 145.86 89 221 C59.63 221 30.26 221 0 221 C0 148.07 0 75.14 0 0 Z " fill="#EE3B33" transform="translate(0,178)"/>
<path d="M0 0 C26.73 0 53.46 0 81 0 C81 7.26 81 14.52 81 22 C89.58 22 98.16 22 107 22 C107 38.17 107 54.34 107 71 C98.42 71 89.84 71 81 71 C81.06752884 78.52131527 81.13777328 86.04165682 81.2355423 93.56248474 C81.2802486 97.06458369 81.31967403 100.5665617 81.34643555 104.06884766 C81.3773659 108.085264 81.43215643 112.10104367 81.48828125 116.1171875 C81.49467117 117.37554413 81.5010611 118.63390076 81.50764465 119.9303894 C81.52743881 121.09144196 81.54723297 122.25249451 81.56762695 123.44873047 C81.57873001 124.47465302 81.58983307 125.50057556 81.60127258 126.55758667 C81.73285263 127.36358307 81.86443268 128.16957947 82 129 C88.98349703 133.65566469 98.61553829 131.6188881 107 132 C107 147.18 107 162.36 107 178 C100.10285137 178.04639338 93.20626351 178.08607005 86.30908203 178.10986328 C83.97214911 178.11980222 81.63522822 178.13335803 79.29833984 178.15087891 C25.28104185 178.54516575 25.28104185 178.54516575 9.125 163.75 C2.55749825 156.64573128 -0.12849605 148.41293575 -0.12025452 138.89396667 C-0.12162918 137.66704102 -0.12300385 136.44011536 -0.12442017 135.17601013 C-0.12088152 133.82461523 -0.11724672 132.47322058 -0.11352539 131.12182617 C-0.11324318 129.69253542 -0.11340191 128.26324452 -0.1139679 126.83395386 C-0.11425456 122.9603938 -0.10837888 119.08686477 -0.10139394 115.21331191 C-0.09513872 111.16274279 -0.09455488 107.11217294 -0.09336853 103.06159973 C-0.09026161 95.39420247 -0.08205683 87.72681949 -0.07201904 80.05942851 C-0.05874701 69.69640299 -0.05335283 59.33337356 -0.04751682 48.97034168 C-0.03811652 32.64688377 -0.01819333 16.32345597 0 0 Z " fill="#EE3B33" transform="translate(1003,18)"/>
<path d="M0 0 C26.73 0 53.46 0 81 0 C81 7.26 81 14.52 81 22 C89.25 22 97.5 22 106 22 C106 38.17 106 54.34 106 71 C97.75 71 89.5 71 81 71 C81.01772316 78.51079572 81.0564177 86.0209206 81.13209057 93.53134632 C81.16638936 97.01878784 81.19147481 100.50579002 81.19555664 103.9934082 C81.20065179 108.00264639 81.24572413 112.01056664 81.29296875 116.01953125 C81.2890361 117.27272659 81.28510345 118.52592194 81.28105164 119.8170929 C81.30069473 120.97806992 81.32033783 122.13904694 81.34057617 123.33520508 C81.35056892 124.87075798 81.35056892 124.87075798 81.36076355 126.43733215 C81.57171158 127.28301254 81.78265961 128.12869293 82 129 C88.74867051 133.58041355 88.74867051 133.58041355 106 133 C106 147.85 106 162.7 106 178 C98.47707412 178.06333614 90.95514339 178.12338828 83.43218231 178.15525055 C79.92708136 178.17093375 76.42220669 178.19180042 72.91723633 178.22631836 C26.60226598 178.67009466 26.60226598 178.67009466 10.74609375 165.71484375 C2.76334481 157.8749628 -0.06337611 148.19897874 -0.36076355 137.21040344 C-0.36936716 134.65109814 -0.36169654 132.09170331 -0.34057617 129.5324707 C-0.339728 128.1121472 -0.34020874 126.69182238 -0.34190369 125.27149963 C-0.34275768 121.4498409 -0.32522973 117.62846979 -0.30418181 113.80687737 C-0.2853145 109.80039987 -0.28365671 105.79391437 -0.28010559 101.78739929 C-0.27081446 94.21576884 -0.24624079 86.64426972 -0.21605712 79.07269686 C-0.17612104 68.83045473 -0.16003452 58.5881762 -0.14255047 48.34587574 C-0.11441725 32.23048563 -0.05462838 16.11537254 0 0 Z " fill="#EE3B33" transform="translate(669,221)"/>
<path d="M0 0 C26.73 0 53.46 0 81 0 C81 7.26 81 14.52 81 22 C89.25 22 97.5 22 106 22 C106 38.17 106 54.34 106 71 C97.75 71 89.5 71 81 71 C81.08852946 78.37357221 81.17886622 85.7467036 81.28729248 93.11994171 C81.33724488 96.55347242 81.38373659 99.98697031 81.421875 103.4206543 C81.46578887 107.36004083 81.52543728 111.29911308 81.5859375 115.23828125 C81.59748871 116.46960281 81.60903992 117.70092438 81.62094116 118.96955872 C81.64081085 120.11051498 81.66068054 121.25147125 81.68115234 122.42700195 C81.69447601 123.432939 81.70779968 124.43887604 81.7215271 125.47529602 C81.83105755 128.24506609 81.83105755 128.24506609 84 131 C90.98569968 133.32856656 98.6466037 132.61297914 106 133 C106 147.85 106 162.7 106 178 C98.55576579 178.04216369 91.11197458 178.08220789 83.66772461 178.10350037 C80.19965402 178.11397754 76.73168428 178.12793179 73.26367188 178.15087891 C69.26691825 178.17715331 65.27026819 178.18654293 61.2734375 178.1953125 C59.44599503 178.21079636 59.44599503 178.21079636 57.58163452 178.22659302 C40.08628389 178.22883243 22.80707397 175.86832505 9.3125 163.9375 C-0.53531147 153.61645273 -0.15084855 139.5316686 -0.11352539 126.24023438 C-0.11324291 124.85976158 -0.11340245 123.47928863 -0.1139679 122.09881592 C-0.11425348 118.37212245 -0.10839553 114.64546151 -0.10139394 110.91877556 C-0.09512047 107.01636802 -0.09455345 103.11395965 -0.09336853 99.21154785 C-0.09026696 91.83111954 -0.08206945 84.45070613 -0.07201904 77.07028437 C-0.05872544 67.09051522 -0.05334851 57.11074196 -0.04751682 47.13096619 C-0.03812873 31.42063297 -0.01820198 15.7103312 0 0 Z " fill="#EE3B33" transform="translate(1071,221)"/>
<path d="M0 0 C26.73 0 53.46 0 81 0 C81 62.37 81 124.74 81 189 C54.27 189 27.54 189 0 189 C0 126.63 0 64.26 0 0 Z " fill="#EE3B33" transform="translate(200,210)"/>
<path d="M0 0 C26.73 0 53.46 0 81 0 C81 62.37 81 124.74 81 189 C54.27 189 27.54 189 0 189 C0 126.63 0 64.26 0 0 Z " fill="#EE3B33" transform="translate(104,210)"/>
<path d="M0 0 C0 17.82 0 35.64 0 54 C-9.9 54.495 -9.9 54.495 -20 55 C-25.18326505 56.19308154 -25.18326505 56.19308154 -30 58 C-30.94875 58.4125 -31.8975 58.825 -32.875 59.25 C-37.27683948 62.87504428 -39.11779896 67.46796425 -40 73 C-40.11561697 75.7974312 -40.18459243 78.57237746 -40.20532227 81.37036133 C-40.21522186 82.20014496 -40.22512146 83.02992859 -40.23532104 83.88485718 C-40.26681279 86.61721989 -40.29164457 89.34959996 -40.31640625 92.08203125 C-40.33698643 93.98061058 -40.35798318 95.87918543 -40.37937927 97.77775574 C-40.43449007 102.76716482 -40.48394771 107.7566145 -40.53222656 112.74609375 C-40.59136975 118.73672665 -40.6575371 124.72728558 -40.72252655 130.71785736 C-40.82039772 139.81185962 -40.90934841 148.90591 -41 158 C-67.4 158 -93.8 158 -121 158 C-121 106.52 -121 55.04 -121 2 C-94.6 2 -68.2 2 -41 2 C-40.505 9.425 -40.505 9.425 -40 17 C-39.13375 15.824375 -38.2675 14.64875 -37.375 13.4375 C-27.79718436 2.45519815 -13.79461397 0 0 0 Z " fill="#EE3B33" transform="translate(987,38)"/>
<path d="M0 0 C2.31 0 4.62 0 7 0 C8.65 3.96 10.3 7.92 12 12 C13.65 8.04 15.3 4.08 17 0 C19.64 0 22.28 0 25 0 C25 7.59 25 15.18 25 23 C23.02 23 21.04 23 19 23 C18.67 20.03 18.34 17.06 18 14 C16.02 18.455 16.02 18.455 14 23 C12.68 23 11.36 23 10 23 C8.68 19.7 7.36 16.4 6 13 C5.67 16.3 5.34 19.6 5 23 C3.35 23 1.7 23 0 23 C0 15.41 0 7.82 0 0 Z " fill="#EE3B33" transform="translate(1579,202)"/>
<path d="M0 0 C6.6 0 13.2 0 20 0 C20 1.32 20 2.64 20 4 C17.69 4 15.38 4 13 4 C13 10.27 13 16.54 13 23 C11.02 23 9.04 23 7 23 C7 16.73 7 10.46 7 4 C4.69 4 2.38 4 0 4 C0 2.68 0 1.36 0 0 Z " fill="#EE3B33" transform="translate(1556,202)"/>
</svg>
